SubSource-HROTdd_VROTx_SLENx_SANGx.ufo
<glyph name="quotedbl" format="2">
  <advance width="496"/>
  <unicode hex="0022"/>
  <outline>
    <contour>
      <point x="103" y="383" type="curve" smooth="yes"/>
      <point x="103" y="526" type="line" smooth="yes"/>
      <point x="103" y="594"/>
      <point x="193" y="594"/>
      <point x="193" y="526" type="curve" smooth="yes"/>
      <point x="193" y="383" type="line" smooth="yes"/>
      <point x="193" y="316"/>
      <point x="103" y="316"/>
    </contour>
    <contour>
      <point x="303" y="383" type="curve" smooth="yes"/>
      <point x="303" y="526" type="line" smooth="yes"/>
      <point x="303" y="594"/>
      <point x="393" y="594"/>
      <point x="393" y="526" type="curve" smooth="yes"/>
      <point x="393" y="383" type="line" smooth="yes"/>
      <point x="393" y="316"/>
      <point x="303" y="316"/>
    </contour>
  </outline>
</glyph>
<glyph name="numbersign" format="2">
  <advance width="700"/>
  <unicode hex="0023"/>
  <outline>
    <contour>
      <point x="415" y="422" type="curve" smooth="yes"/>
      <point x="382" y="361"/>
      <point x="305" y="381"/>
      <point x="296" y="300" type="curve" smooth="yes"/>
      <point x="285" y="208"/>
      <point x="367" y="94"/>
      <point x="372" y="22" type="curve" smooth="yes"/>
      <point x="376" y="-45"/>
      <point x="286" y="-51"/>
      <point x="282" y="16" type="curve" smooth="yes"/>
      <point x="279" y="70"/>
      <point x="192" y="186"/>
      <point x="206" y="310" type="curve" smooth="yes"/>
      <point x="223" y="456"/>
      <point x="317" y="430"/>
      <point x="335" y="464" type="curve" smooth="yes"/>
      <point x="367" y="524"/>
      <point x="446" y="481"/>
    </contour>
    <contour>
      <point x="653" y="422" type="curve" smooth="yes"/>
      <point x="621" y="360"/>
      <point x="543" y="381"/>
      <point x="534" y="300" type="curve" smooth="yes"/>
      <point x="523" y="207"/>
      <point x="601" y="100"/>
      <point x="610" y="24" type="curve" smooth="yes"/>
      <point x="618" y="-43"/>
      <point x="528" y="-53"/>
      <point x="520" y="14" type="curve" smooth="yes"/>
      <point x="513" y="71"/>
      <point x="431" y="188"/>
      <point x="444" y="310" type="curve" smooth="yes"/>
      <point x="461" y="456"/>
      <point x="555" y="429"/>
      <point x="573" y="464" type="curve" smooth="yes"/>
      <point x="604" y="524"/>
      <point x="684" y="482"/>
    </contour>
    <contour>
      <point x="736" y="355" type="curve" smooth="yes"/>
      <point x="746" y="295"/>
      <point x="685" y="273"/>
      <point x="620" y="273" type="curve" smooth="yes"/>
      <point x="482" y="273"/>
      <point x="435" y="273"/>
      <point x="342" y="273" type="curve" smooth="yes"/>
      <point x="304" y="273"/>
      <point x="245" y="275"/>
      <point x="152" y="303" type="curve" smooth="yes"/>
      <point x="87" y="322"/>
      <point x="113" y="408"/>
      <point x="178" y="389" type="curve" smooth="yes"/>
      <point x="259" y="365"/>
      <point x="308" y="363"/>
      <point x="342" y="363" type="curve" smooth="yes"/>
      <point x="481" y="363"/>
      <point x="528" y="363"/>
      <point x="620" y="363" type="curve" smooth="yes"/>
      <point x="622" y="363"/>
      <point x="648" y="339"/>
      <point x="648" y="341" type="curve" smooth="yes"/>
      <point x="637" y="408"/>
      <point x="726" y="422"/>
    </contour>
    <contour>
      <point x="736" y="164" type="curve" smooth="yes"/>
      <point x="722" y="111"/>
      <point x="664" y="100"/>
      <point x="598" y="100" type="curve" smooth="yes"/>
      <point x="460" y="100"/>
      <point x="412" y="100"/>
      <point x="320" y="100" type="curve" smooth="yes"/>
      <point x="289" y="100"/>
      <point x="239" y="104"/>
      <point x="152" y="130" type="curve" smooth="yes"/>
      <point x="87" y="149"/>
      <point x="113" y="235"/>
      <point x="178" y="216" type="curve" smooth="yes"/>
      <point x="251" y="194"/>
      <point x="293" y="190"/>
      <point x="320" y="190" type="curve" smooth="yes"/>
      <point x="458" y="190"/>
      <point x="506" y="190"/>
      <point x="598" y="190" type="curve" smooth="yes"/>
      <point x="601" y="190"/>
      <point x="648" y="184"/>
      <point x="648" y="186" type="curve" smooth="yes"/>
      <point x="665" y="251"/>
      <point x="752" y="230"/>
    </contour>
  </outline>
</glyph>
<glyph name="percent" format="2">
  <advance width="1023"/>
  <unicode hex="0025"/>
  <outline>
    <contour>
      <point x="823" y="-11" type="curve" smooth="yes"/>
      <point x="765" y="3"/>
      <point x="723" y="54"/>
      <point x="723" y="122" type="curve" smooth="yes"/>
      <point x="723" y="207"/>
      <point x="793" y="274"/>
      <point x="904" y="274" type="curve" smooth="yes"/>
      <point x="1015" y="274"/>
      <point x="1087" y="207"/>
      <point x="1087" y="122" type="curve" smooth="yes"/>
      <point x="1087" y="56"/>
      <point x="1038" y="1"/>
      <point x="951" y="-12" type="curve" smooth="yes"/>
      <point x="884" y="-21"/>
      <point x="871" y="68"/>
      <point x="937" y="78" type="curve" smooth="yes"/>
      <point x="971" y="82"/>
      <point x="997" y="97"/>
      <point x="997" y="122" type="curve" smooth="yes"/>
      <point x="997" y="162"/>
      <point x="956" y="184"/>
      <point x="904" y="184" type="curve" smooth="yes"/>
      <point x="852" y="184"/>
      <point x="813" y="162"/>
      <point x="813" y="122" type="curve" smooth="yes"/>
      <point x="813" y="99"/>
      <point x="823" y="81"/>
      <point x="843" y="77" type="curve" smooth="yes"/>
      <point x="909" y="62"/>
      <point x="889" y="-26"/>
    </contour>
    <contour>
      <point x="860" y="444" type="curve" smooth="yes"/>
      <point x="840" y="383"/>
      <point x="791" y="333"/>
      <point x="730" y="270" type="curve" smooth="yes"/>
      <point x="661" y="201"/>
      <point x="591" y="131"/>
      <point x="549" y="88" type="curve" smooth="yes"/>
      <point x="512" y="50"/>
      <point x="462" y="16"/>
      <point x="398" y="-3" type="curve" smooth="yes"/>
      <point x="333" y="-23"/>
      <point x="307" y="63"/>
      <point x="372" y="83" type="curve" smooth="yes"/>
      <point x="420" y="98"/>
      <point x="456" y="122"/>
      <point x="485" y="152" type="curve" smooth="yes"/>
      <point x="531" y="197"/>
      <point x="602" y="269"/>
      <point x="666" y="334" type="curve" smooth="yes"/>
      <point x="710" y="378"/>
      <point x="760" y="428"/>
      <point x="774" y="472" type="curve" smooth="yes"/>
      <point x="795" y="536"/>
      <point x="880" y="509"/>
    </contour>
    <contour>
      <point x="414" y="492" type="curve" smooth="yes"/>
      <point x="496" y="461"/>
      <point x="541" y="402"/>
      <point x="541" y="339" type="curve" smooth="yes"/>
      <point x="541" y="255"/>
      <point x="469" y="188"/>
      <point x="358" y="188" type="curve" smooth="yes"/>
      <point x="247" y="188"/>
      <point x="177" y="255"/>
      <point x="177" y="339" type="curve" smooth="yes"/>
      <point x="177" y="402"/>
      <point x="212" y="458"/>
      <point x="264" y="489" type="curve" smooth="yes"/>
      <point x="322" y="523"/>
      <point x="368" y="446"/>
      <point x="310" y="411" type="curve" smooth="yes"/>
      <point x="284" y="396"/>
      <point x="267" y="370"/>
      <point x="267" y="339" type="curve" smooth="yes"/>
      <point x="267" y="300"/>
      <point x="306" y="278"/>
      <point x="358" y="278" type="curve" smooth="yes"/>
      <point x="410" y="278"/>
      <point x="451" y="300"/>
      <point x="451" y="339" type="curve" smooth="yes"/>
      <point x="451" y="369"/>
      <point x="420" y="393"/>
      <point x="382" y="408" type="curve" smooth="yes"/>
      <point x="319" y="432"/>
      <point x="351" y="516"/>
    </contour>
  </outline>
</glyph>
<glyph name="parenright" format="2">
  <advance width="452"/>
  <unicode hex="0029"/>
  <outline>
    <contour>
      <point x="189" y="563" type="curve" smooth="yes"/>
      <point x="352" y="531"/>
      <point x="502" y="410"/>
      <point x="502" y="207" type="curve" smooth="yes"/>
      <point x="502" y="4"/>
      <point x="352" y="-116"/>
      <point x="189" y="-149" type="curve" smooth="yes"/>
      <point x="123" y="-162"/>
      <point x="105" y="-74"/>
      <point x="171" y="-61" type="curve" smooth="yes"/>
      <point x="296" y="-36"/>
      <point x="412" y="52"/>
      <point x="412" y="207" type="curve" smooth="yes"/>
      <point x="412" y="362"/>
      <point x="296" y="451"/>
      <point x="171" y="475" type="curve" smooth="yes"/>
      <point x="105" y="488"/>
      <point x="122" y="576"/>
    </contour>
  </outline>
</glyph>
<glyph name="asterisk" format="2">
  <advance width="614"/>
  <unicode hex="002A"/>
  <outline>
    <contour>
      <point x="340" y="481" type="curve" smooth="yes"/>
      <point x="428" y="401"/>
      <point x="493" y="333"/>
      <point x="525" y="293" type="curve" smooth="yes"/>
      <point x="599" y="203"/>
      <point x="571" y="163"/>
      <point x="539" y="148" type="curve" smooth="yes"/>
      <point x="478" y="120"/>
      <point x="440" y="201"/>
      <point x="501" y="230" type="curve" smooth="yes"/>
      <point x="502" y="230"/>
      <point x="458" y="233"/>
      <point x="455" y="237" type="curve" smooth="yes"/>
      <point x="425" y="275"/>
      <point x="362" y="339"/>
      <point x="280" y="415" type="curve" smooth="yes"/>
      <point x="230" y="460"/>
      <point x="291" y="527"/>
    </contour>
    <contour>
      <point x="495" y="499" type="curve" smooth="yes"/>
      <point x="496" y="406"/>
      <point x="422" y="372"/>
      <point x="352" y="332" type="curve" smooth="yes"/>
      <point x="316" y="311"/>
      <point x="286" y="295"/>
      <point x="303" y="236" type="curve" smooth="yes"/>
      <point x="322" y="172"/>
      <point x="236" y="147"/>
      <point x="217" y="212" type="curve" smooth="yes"/>
      <point x="186" y="319"/>
      <point x="241" y="373"/>
      <point x="308" y="410" type="curve" smooth="yes"/>
      <point x="339" y="428"/>
      <point x="406" y="456"/>
      <point x="405" y="497" type="curve" smooth="yes"/>
      <point x="404" y="565"/>
      <point x="494" y="566"/>
    </contour>
    <contour>
      <point x="625" y="274" type="curve" smooth="yes"/>
      <point x="456" y="274"/>
      <point x="319" y="274"/>
      <point x="205" y="274" type="curve" smooth="yes"/>
      <point x="138" y="274"/>
      <point x="138" y="364"/>
      <point x="205" y="364" type="curve" smooth="yes"/>
      <point x="374" y="364"/>
      <point x="511" y="364"/>
      <point x="625" y="364" type="curve" smooth="yes"/>
      <point x="693" y="364"/>
      <point x="693" y="274"/>
    </contour>
  </outline>
</glyph>
<glyph name="plus" format="2">
  <advance width="540"/>
  <unicode hex="002B"/>
  <outline>
    <contour>
      <point x="423" y="316" type="curve" smooth="yes"/>
      <point x="384" y="274"/>
      <point x="392" y="188"/>
      <point x="432" y="87" type="curve" smooth="yes"/>
      <point x="457" y="25"/>
      <point x="373" y="-8"/>
      <point x="348" y="55" type="curve" smooth="yes"/>
      <point x="288" y="206"/>
      <point x="297" y="313"/>
      <point x="357" y="378" type="curve" smooth="yes"/>
      <point x="403" y="427"/>
      <point x="469" y="366"/>
    </contour>
    <contour>
      <point x="599" y="168" type="curve" smooth="yes"/>
      <point x="517" y="129"/>
      <point x="383" y="125"/>
      <point x="191" y="165" type="curve" smooth="yes"/>
      <point x="125" y="179"/>
      <point x="143" y="267"/>
      <point x="209" y="253" type="curve" smooth="yes"/>
      <point x="366" y="221"/>
      <point x="493" y="217"/>
      <point x="561" y="250" type="curve" smooth="yes"/>
      <point x="621" y="279"/>
      <point x="660" y="198"/>
    </contour>
  </outline>
</glyph>
<glyph name="period" format="2">
  <advance width="260"/>
  <unicode hex="002E"/>
  <outline>
    <contour>
      <point x="244" y="59" type="curve" smooth="yes"/>
      <point x="245" y="59"/>
      <point x="214" y="30"/>
      <point x="214" y="31" type="curve" smooth="yes"/>
      <point x="181" y="90"/>
      <point x="260" y="134"/>
      <point x="292" y="75" type="curve" smooth="yes"/>
      <point x="324" y="18"/>
      <point x="294" y="-23"/>
      <point x="262" y="-29" type="curve" smooth="yes"/>
      <point x="196" y="-42"/>
      <point x="178" y="46"/>
    </contour>
  </outline>
</glyph>
<glyph name="zero" format="2">
  <advance width="592"/>
  <unicode hex="0030"/>
  <outline>
    <contour>
      <point x="440" y="85" type="curve" smooth="yes"/>
      <point x="475" y="86"/>
      <point x="512" y="89"/>
      <point x="534" y="101" type="curve" smooth="yes"/>
      <point x="573" y="123"/>
      <point x="582" y="179"/>
      <point x="582" y="229" type="curve" smooth="yes"/>
      <point x="582" y="330"/>
      <point x="518" y="399"/>
      <point x="416" y="399" type="curve" smooth="yes"/>
      <point x="313" y="399"/>
      <point x="250" y="330"/>
      <point x="250" y="229" type="curve" smooth="yes"/>
      <point x="250" y="174"/>
      <point x="281" y="119"/>
      <point x="306" y="95" type="curve" smooth="yes"/>
      <point x="316" y="86"/>
      <point x="319" y="86"/>
      <point x="333" y="85" type="curve" smooth="yes"/>
      <point x="400" y="82"/>
      <point x="397" y="-8"/>
      <point x="329" y="-5" type="curve" smooth="yes"/>
      <point x="292" y="-4"/>
      <point x="270" y="6"/>
      <point x="246" y="29" type="curve" smooth="yes"/>
      <point x="205" y="65"/>
      <point x="160" y="144"/>
      <point x="160" y="229" type="curve" smooth="yes"/>
      <point x="160" y="380"/>
      <point x="263" y="489"/>
      <point x="416" y="489" type="curve" smooth="yes"/>
      <point x="568" y="489"/>
      <point x="672" y="380"/>
      <point x="672" y="229" type="curve" smooth="yes"/>
      <point x="672" y="140"/>
      <point x="648" y="61"/>
      <point x="578" y="23" type="curve" smooth="yes"/>
      <point x="542" y="3"/>
      <point x="498" y="-4"/>
      <point x="442" y="-5" type="curve" smooth="yes"/>
      <point x="374" y="-6"/>
      <point x="373" y="84"/>
    </contour>
  </outline>
</glyph>
<glyph name="one" format="2">
  <advance width="344"/>
  <unicode hex="0031"/>
  <outline>
    <contour>
      <point x="83" y="521" type="curve" smooth="yes"/>
      <point x="139" y="523"/>
      <point x="208" y="523"/>
      <point x="262" y="507" type="curve" smooth="yes"/>
      <point x="336" y="485"/>
      <point x="384" y="432"/>
      <point x="384" y="321" type="curve" smooth="yes"/>
      <point x="384" y="215"/>
      <point x="384" y="169"/>
      <point x="384" y="105" type="curve" smooth="yes"/>
      <point x="384" y="45"/>
      <point x="363" y="9"/>
      <point x="324" y="-5" type="curve" smooth="yes"/>
      <point x="260" y="-27"/>
      <point x="230" y="58"/>
      <point x="294" y="81" type="curve" smooth="yes"/>
      <point x="296" y="81"/>
      <point x="294" y="102"/>
      <point x="294" y="105" type="curve" smooth="yes"/>
      <point x="294" y="200"/>
      <point x="294" y="250"/>
      <point x="294" y="321" type="curve" smooth="yes"/>
      <point x="294" y="383"/>
      <point x="278" y="409"/>
      <point x="236" y="421" type="curve" smooth="yes"/>
      <point x="194" y="433"/>
      <point x="131" y="433"/>
      <point x="87" y="431" type="curve" smooth="yes"/>
      <point x="19" y="428"/>
      <point x="16" y="518"/>
    </contour>
  </outline>
</glyph>
<glyph name="three" format="2">
  <advance width="488"/>
  <unicode hex="0033"/>
  <outline>
    <contour>
      <point x="196" y="99" type="curve" smooth="yes"/>
      <point x="244" y="82"/>
      <point x="298" y="70"/>
      <point x="347" y="67" type="curve" smooth="yes"/>
      <point x="405" y="64"/>
      <point x="493" y="76"/>
      <point x="479" y="122" type="curve" smooth="yes"/>
      <point x="456" y="195"/>
      <point x="342" y="246"/>
      <point x="288" y="253" type="curve" smooth="yes"/>
      <point x="250" y="259"/>
      <point x="242" y="259"/>
      <point x="220" y="260" type="curve" smooth="yes"/>
      <point x="218" y="260"/>
      <point x="324" y="326"/>
      <point x="332" y="328" type="curve" smooth="yes"/>
      <point x="358" y="337"/>
      <point x="367" y="346"/>
      <point x="384" y="359" type="curve" smooth="yes"/>
      <point x="397" y="370"/>
      <point x="408" y="388"/>
      <point x="417" y="417" type="curve" smooth="yes"/>
      <point x="426" y="451"/>
      <point x="402" y="454"/>
      <point x="371" y="446" type="curve" smooth="yes"/>
      <point x="310" y="429"/>
      <point x="274" y="394"/>
      <point x="210" y="395" type="curve" smooth="yes"/>
      <point x="143" y="396"/>
      <point x="144" y="486"/>
      <point x="212" y="485" type="curve" smooth="yes"/>
      <point x="256" y="484"/>
      <point x="259" y="508"/>
      <point x="347" y="532" type="curve" smooth="yes"/>
      <point x="443" y="559"/>
      <point x="532" y="501"/>
      <point x="503" y="393" type="curve" smooth="yes"/>
      <point x="488" y="339"/>
      <point x="464" y="308"/>
      <point x="440" y="289" type="curve" smooth="yes"/>
      <point x="415" y="269"/>
      <point x="398" y="255"/>
      <point x="362" y="244" type="curve" smooth="yes"/>
      <point x="128" y="162"/>
      <point x="144" y="352"/>
      <point x="224" y="350" type="curve" smooth="yes"/>
      <point x="248" y="349"/>
      <point x="260" y="349"/>
      <point x="300" y="343" type="curve" smooth="yes"/>
      <point x="382" y="332"/>
      <point x="528" y="263"/>
      <point x="565" y="148" type="curve" smooth="yes"/>
      <point x="601" y="34"/>
      <point x="486" y="-31"/>
      <point x="343" y="-23" type="curve" smooth="yes"/>
      <point x="284" y="-20"/>
      <point x="222" y="-6"/>
      <point x="166" y="15" type="curve" smooth="yes"/>
      <point x="102" y="38"/>
      <point x="133" y="122"/>
    </contour>
  </outline>
</glyph>
<glyph name="five" format="2">
  <advance width="501"/>
  <unicode hex="0035"/>
  <outline>
    <contour>
      <point x="513" y="430" type="curve" smooth="yes"/>
      <point x="495" y="410"/>
      <point x="473" y="399"/>
      <point x="432" y="396" type="curve" smooth="yes"/>
      <point x="400" y="393"/>
      <point x="349" y="392"/>
      <point x="300" y="402" type="curve" smooth="yes"/>
      <point x="297" y="402"/>
      <point x="271" y="434"/>
      <point x="272" y="432" type="curve" smooth="yes"/>
      <point x="276" y="401"/>
      <point x="278" y="390"/>
      <point x="283" y="363" type="curve" smooth="yes"/>
      <point x="287" y="326"/>
      <point x="288" y="308"/>
      <point x="284" y="275" type="curve" smooth="yes"/>
      <point x="265" y="139"/>
      <point x="92" y="293"/>
      <point x="188" y="339" type="curve" smooth="yes"/>
      <point x="220" y="353"/>
      <point x="239" y="352"/>
      <point x="280" y="352" type="curve" smooth="yes"/>
      <point x="408" y="352"/>
      <point x="557" y="263"/>
      <point x="585" y="146" type="curve" smooth="yes"/>
      <point x="616" y="14"/>
      <point x="504" y="-38"/>
      <point x="350" y="-29" type="curve" smooth="yes"/>
      <point x="300" y="-26"/>
      <point x="249" y="-18"/>
      <point x="197" y="-3" type="curve" smooth="yes"/>
      <point x="133" y="16"/>
      <point x="158" y="102"/>
      <point x="223" y="83" type="curve" smooth="yes"/>
      <point x="267" y="70"/>
      <point x="312" y="64"/>
      <point x="356" y="61" type="curve" smooth="yes"/>
      <point x="431" y="56"/>
      <point x="513" y="61"/>
      <point x="497" y="126" type="curve" smooth="yes"/>
      <point x="479" y="201"/>
      <point x="364" y="262"/>
      <point x="280" y="262" type="curve" smooth="yes"/>
      <point x="260" y="262"/>
      <point x="241" y="264"/>
      <point x="226" y="257" type="curve" smooth="yes"/>
      <point x="225" y="257"/>
      <point x="194" y="285"/>
      <point x="194" y="287" type="curve" smooth="yes"/>
      <point x="198" y="312"/>
      <point x="197" y="324"/>
      <point x="193" y="349" type="curve" smooth="yes"/>
      <point x="190" y="376"/>
      <point x="188" y="387"/>
      <point x="182" y="420" type="curve" smooth="yes"/>
      <point x="175" y="480"/>
      <point x="218" y="508"/>
      <point x="318" y="490" type="curve" smooth="yes"/>
      <point x="357" y="482"/>
      <point x="398" y="483"/>
      <point x="426" y="486" type="curve" smooth="yes"/>
      <point x="434" y="487"/>
      <point x="443" y="487"/>
      <point x="447" y="492" type="curve" smooth="yes"/>
      <point x="493" y="541"/>
      <point x="559" y="480"/>
    </contour>
  </outline>
</glyph>
<glyph name="six" format="2">
  <advance width="534"/>
  <unicode hex="0036"/>
  <outline>
    <contour>
      <point x="146" y="329" type="curve" smooth="yes"/>
      <point x="207" y="341"/>
      <point x="277" y="355"/>
      <point x="356" y="348" type="curve" smooth="yes"/>
      <point x="503" y="334"/>
      <point x="621" y="237"/>
      <point x="621" y="145" type="curve" smooth="yes"/>
      <point x="621" y="49"/>
      <point x="538" y="-30"/>
      <point x="397" y="-30" type="curve" smooth="yes"/>
      <point x="279" y="-30"/>
      <point x="160" y="40"/>
      <point x="160" y="210" type="curve" smooth="yes"/>
      <point x="160" y="404"/>
      <point x="307" y="480"/>
      <point x="431" y="487" type="curve" smooth="yes"/>
      <point x="464" y="489"/>
      <point x="489" y="492"/>
      <point x="503" y="493" type="curve" smooth="yes"/>
      <point x="570" y="498"/>
      <point x="577" y="408"/>
      <point x="509" y="403" type="curve" smooth="yes"/>
      <point x="497" y="402"/>
      <point x="472" y="399"/>
      <point x="437" y="397" type="curve" smooth="yes"/>
      <point x="349" y="392"/>
      <point x="250" y="346"/>
      <point x="250" y="210" type="curve" smooth="yes"/>
      <point x="250" y="98"/>
      <point x="319" y="60"/>
      <point x="397" y="60" type="curve" smooth="yes"/>
      <point x="475" y="60"/>
      <point x="531" y="92"/>
      <point x="531" y="145" type="curve" smooth="yes"/>
      <point x="531" y="195"/>
      <point x="427" y="251"/>
      <point x="348" y="258" type="curve" smooth="yes"/>
      <point x="279" y="265"/>
      <point x="215" y="251"/>
      <point x="164" y="241" type="curve" smooth="yes"/>
      <point x="97" y="228"/>
      <point x="80" y="316"/>
    </contour>
  </outline>
</glyph>
<glyph name="semicolon" format="2">
  <advance width="279"/>
  <unicode hex="003B"/>
  <outline>
    <contour>
      <point x="261" y="229" type="curve" smooth="yes"/>
      <point x="173" y="237"/>
      <point x="172" y="339"/>
      <point x="260" y="350" type="curve" smooth="yes"/>
      <point x="327" y="358"/>
      <point x="337" y="268"/>
      <point x="270" y="260" type="curve" smooth="yes"/>
      <point x="268" y="260"/>
      <point x="266" y="319"/>
      <point x="269" y="319" type="curve" smooth="yes"/>
      <point x="336" y="313"/>
      <point x="328" y="223"/>
    </contour>
    <contour>
      <point x="200" y="-61" type="curve" smooth="yes"/>
      <point x="215" y="-44"/>
      <point x="241" y="0"/>
      <point x="225" y="10" type="curve" smooth="yes"/>
      <point x="168" y="46"/>
      <point x="216" y="122"/>
      <point x="273" y="86" type="curve" smooth="yes"/>
      <point x="338" y="45"/>
      <point x="332" y="-42"/>
      <point x="270" y="-119" type="curve" smooth="yes"/>
      <point x="227" y="-171"/>
      <point x="157" y="-114"/>
    </contour>
  </outline>
</glyph>
<glyph name="greater" format="2">
  <advance width="447"/>
  <unicode hex="003E"/>
  <outline>
    <contour>
      <point x="182" y="150" type="curve" smooth="yes"/>
      <point x="255" y="159"/>
      <point x="326" y="175"/>
      <point x="381" y="212" type="curve" smooth="yes"/>
      <point x="389" y="218"/>
      <point x="337" y="240"/>
      <point x="325" y="245" type="curve" smooth="yes"/>
      <point x="246" y="282"/>
      <point x="258" y="257"/>
      <point x="190" y="286" type="curve" smooth="yes"/>
      <point x="128" y="312"/>
      <point x="164" y="395"/>
      <point x="226" y="368" type="curve" smooth="yes"/>
      <point x="281" y="345"/>
      <point x="267" y="372"/>
      <point x="363" y="327" type="curve" smooth="yes"/>
      <point x="503" y="263"/>
      <point x="525" y="200"/>
      <point x="431" y="138" type="curve" smooth="yes"/>
      <point x="364" y="93"/>
      <point x="283" y="72"/>
      <point x="194" y="60" type="curve" smooth="yes"/>
      <point x="127" y="51"/>
      <point x="115" y="141"/>
    </contour>
  </outline>
</glyph>
<glyph name="at" format="2">
  <advance width="956"/>
  <unicode hex="0040"/>
  <outline>
    <contour>
      <point x="795" y="291" type="curve" smooth="yes"/>
      <point x="795" y="253"/>
      <point x="795" y="207"/>
      <point x="795" y="175" type="curve" smooth="yes"/>
      <point x="795" y="84"/>
      <point x="717" y="15"/>
      <point x="602" y="15" type="curve" smooth="yes"/>
      <point x="486" y="15"/>
      <point x="408" y="87"/>
      <point x="408" y="177" type="curve" smooth="yes"/>
      <point x="408" y="268"/>
      <point x="481" y="338"/>
      <point x="561" y="359" type="curve" smooth="yes"/>
      <point x="651" y="382"/>
      <point x="695" y="351"/>
      <point x="695" y="250" type="curve" smooth="yes"/>
      <point x="695" y="197"/>
      <point x="785" y="146"/>
      <point x="838" y="136" type="curve" smooth="yes"/>
      <point x="911" y="122"/>
      <point x="942" y="149"/>
      <point x="942" y="209" type="curve" smooth="yes"/>
      <point x="942" y="325"/>
      <point x="803" y="399"/>
      <point x="620" y="399" type="curve" smooth="yes"/>
      <point x="427" y="399"/>
      <point x="277" y="306"/>
      <point x="277" y="172" type="curve" smooth="yes"/>
      <point x="277" y="36"/>
      <point x="423" y="-44"/>
      <point x="608" y="-44" type="curve" smooth="yes"/>
      <point x="642" y="-44"/>
      <point x="700" y="-41"/>
      <point x="715" y="-15" type="curve" smooth="yes"/>
      <point x="748" y="44"/>
      <point x="826" y="-1"/>
      <point x="793" y="-59" type="curve" smooth="yes"/>
      <point x="759" y="-119"/>
      <point x="687" y="-134"/>
      <point x="608" y="-134" type="curve" smooth="yes"/>
      <point x="360" y="-134"/>
      <point x="187" y="-10"/>
      <point x="187" y="172" type="curve" smooth="yes"/>
      <point x="187" y="350"/>
      <point x="364" y="489"/>
      <point x="620" y="489" type="curve" smooth="yes"/>
      <point x="872" y="489"/>
      <point x="1032" y="368"/>
      <point x="1032" y="209" type="curve" smooth="yes"/>
      <point x="1032" y="98"/>
      <point x="957" y="22"/>
      <point x="820" y="48" type="curve" smooth="yes"/>
      <point x="720" y="67"/>
      <point x="605" y="150"/>
      <point x="605" y="250" type="curve" smooth="yes"/>
      <point x="605" y="278"/>
      <point x="608" y="278"/>
      <point x="583" y="271" type="curve" smooth="yes"/>
      <point x="542" y="261"/>
      <point x="498" y="224"/>
      <point x="498" y="177" type="curve" smooth="yes"/>
      <point x="498" y="132"/>
      <point x="545" y="105"/>
      <point x="602" y="105" type="curve" smooth="yes"/>
      <point x="658" y="105"/>
      <point x="705" y="130"/>
      <point x="705" y="175" type="curve" smooth="yes"/>
      <point x="705" y="223"/>
      <point x="705" y="266"/>
      <point x="705" y="291" type="curve" smooth="yes"/>
      <point x="705" y="359"/>
      <point x="795" y="359"/>
    </contour>
  </outline>
</glyph>
<glyph name="C" format="2">
  <advance width="600"/>
  <unicode hex="0043"/>
  <outline>
    <contour>
      <point x="640" y="41" type="curve" smooth="yes"/>
      <point x="603" y="-6"/>
      <point x="539" y="-30"/>
      <point x="472" y="-30" type="curve" smooth="yes"/>
      <point x="299" y="-32"/>
      <point x="165" y="72"/>
      <point x="165" y="229" type="curve" smooth="yes"/>
      <point x="165" y="386"/>
      <point x="302" y="489"/>
      <point x="476" y="488" type="curve"/>
      <point x="534" y="488"/>
      <point x="584" y="485"/>
      <point x="617" y="476" type="curve" smooth="yes"/>
      <point x="682" y="458"/>
      <point x="658" y="372"/>
      <point x="593" y="390" type="curve" smooth="yes"/>
      <point x="568" y="396"/>
      <point x="519" y="398"/>
      <point x="476" y="398" type="curve" smooth="yes"/>
      <point x="356" y="399"/>
      <point x="255" y="337"/>
      <point x="255" y="229" type="curve" smooth="yes"/>
      <point x="255" y="121"/>
      <point x="352" y="58"/>
      <point x="472" y="60" type="curve" smooth="yes"/>
      <point x="509" y="60"/>
      <point x="549" y="71"/>
      <point x="570" y="97" type="curve" smooth="yes"/>
      <point x="611" y="150"/>
      <point x="682" y="94"/>
    </contour>
  </outline>
</glyph>
<glyph name="D" format="2">
  <advance width="660"/>
  <unicode hex="0044"/>
  <outline>
    <contour>
      <point x="200" y="83" type="curve" smooth="yes"/>
      <point x="202" y="84"/>
      <point x="200" y="123"/>
      <point x="200" y="128" type="curve" smooth="yes"/>
      <point x="200" y="213"/>
      <point x="200" y="281"/>
      <point x="200" y="339" type="curve" smooth="yes"/>
      <point x="200" y="368"/>
      <point x="133" y="523"/>
      <point x="236" y="523" type="curve" smooth="yes"/>
      <point x="290" y="523"/>
      <point x="352" y="500"/>
      <point x="441" y="481" type="curve" smooth="yes"/>
      <point x="712" y="427"/>
      <point x="740" y="363"/>
      <point x="740" y="226" type="curve" smooth="yes"/>
      <point x="740" y="83"/>
      <point x="630" y="-39"/>
      <point x="420" y="-25" type="curve" smooth="yes"/>
      <point x="388" y="-23"/>
      <point x="350" y="-15"/>
      <point x="303" y="-2" type="curve" smooth="yes"/>
      <point x="238" y="16"/>
      <point x="262" y="102"/>
      <point x="327" y="84" type="curve" smooth="yes"/>
      <point x="366" y="73"/>
      <point x="400" y="67"/>
      <point x="426" y="65" type="curve" smooth="yes"/>
      <point x="573" y="55"/>
      <point x="650" y="126"/>
      <point x="650" y="226" type="curve" smooth="yes"/>
      <point x="650" y="330"/>
      <point x="629" y="352"/>
      <point x="423" y="393" type="curve" smooth="yes"/>
      <point x="309" y="417"/>
      <point x="278" y="433"/>
      <point x="236" y="433" type="curve" smooth="yes"/>
      <point x="229" y="433"/>
      <point x="290" y="744"/>
      <point x="290" y="339" type="curve" smooth="yes"/>
      <point x="290" y="252"/>
      <point x="290" y="185"/>
      <point x="290" y="128" type="curve" smooth="yes"/>
      <point x="290" y="28"/>
      <point x="260" y="9"/>
      <point x="230" y="-1" type="curve" smooth="yes"/>
      <point x="166" y="-24"/>
      <point x="136" y="61"/>
    </contour>
  </outline>
</glyph>
<glyph name="F" format="2">
  <advance width="503"/>
  <unicode hex="0046"/>
  <outline>
    <contour>
      <point x="461" y="222" type="curve" smooth="yes"/>
      <point x="400" y="222"/>
      <point x="288" y="249"/>
      <point x="195" y="265" type="curve" smooth="yes"/>
      <point x="162" y="270"/>
      <point x="170" y="255"/>
      <point x="170" y="233" type="curve" smooth="yes"/>
      <point x="170" y="198"/>
      <point x="170" y="188"/>
      <point x="170" y="154" type="curve" smooth="yes"/>
      <point x="170" y="149"/>
      <point x="200" y="68"/>
      <point x="200" y="73" type="curve" smooth="yes"/>
      <point x="200" y="181"/>
      <point x="210" y="310"/>
      <point x="201" y="373" type="curve" smooth="yes"/>
      <point x="188" y="448"/>
      <point x="183" y="513"/>
      <point x="290" y="513" type="curve" smooth="yes"/>
      <point x="336" y="513"/>
      <point x="478" y="485"/>
      <point x="543" y="485" type="curve" smooth="yes"/>
      <point x="611" y="485"/>
      <point x="611" y="395"/>
      <point x="543" y="395" type="curve" smooth="yes"/>
      <point x="466" y="395"/>
      <point x="330" y="423"/>
      <point x="290" y="423" type="curve" smooth="yes"/>
      <point x="279" y="423"/>
      <point x="288" y="395"/>
      <point x="289" y="387" type="curve" smooth="yes"/>
      <point x="302" y="310"/>
      <point x="290" y="205"/>
      <point x="290" y="73" type="curve" smooth="yes"/>
      <point x="290" y="-64"/>
      <point x="80" y="19"/>
      <point x="80" y="154" type="curve" smooth="yes"/>
      <point x="80" y="205"/>
      <point x="80" y="209"/>
      <point x="80" y="233" type="curve" smooth="yes"/>
      <point x="80" y="309"/>
      <point x="100" y="372"/>
      <point x="209" y="353" type="curve" smooth="yes"/>
      <point x="283" y="341"/>
      <point x="413" y="312"/>
      <point x="461" y="312" type="curve" smooth="yes"/>
      <point x="529" y="312"/>
      <point x="529" y="222"/>
    </contour>
  </outline>
</glyph>
<glyph name="G" format="2">
  <advance width="653"/>
  <unicode hex="0047"/>
  <outline>
    <contour>
      <point x="632" y="389" type="curve" smooth="yes"/>
      <point x="590" y="392"/>
      <point x="537" y="400"/>
      <point x="489" y="400" type="curve" smooth="yes"/>
      <point x="348" y="399"/>
      <point x="255" y="328"/>
      <point x="255" y="229" type="curve" smooth="yes"/>
      <point x="255" y="130"/>
      <point x="341" y="58"/>
      <point x="481" y="58" type="curve" smooth="yes"/>
      <point x="534" y="58"/>
      <point x="572" y="81"/>
      <point x="571" y="102" type="curve" smooth="yes"/>
      <point x="567" y="146"/>
      <point x="558" y="172"/>
      <point x="569" y="220" type="curve" smooth="yes"/>
      <point x="570" y="222"/>
      <point x="599" y="191"/>
      <point x="596" y="191" type="curve" smooth="yes"/>
      <point x="547" y="191"/>
      <point x="500" y="191"/>
      <point x="477" y="191" type="curve" smooth="yes"/>
      <point x="410" y="191"/>
      <point x="410" y="281"/>
      <point x="477" y="281" type="curve" smooth="yes"/>
      <point x="511" y="281"/>
      <point x="563" y="281"/>
      <point x="596" y="281" type="curve" smooth="yes"/>
      <point x="669" y="281"/>
      <point x="672" y="269"/>
      <point x="657" y="200" type="curve" smooth="yes"/>
      <point x="650" y="171"/>
      <point x="659" y="135"/>
      <point x="661" y="106" type="curve" smooth="yes"/>
      <point x="664" y="53"/>
      <point x="617" y="-32"/>
      <point x="481" y="-32" type="curve" smooth="yes"/>
      <point x="281" y="-32"/>
      <point x="165" y="88"/>
      <point x="165" y="229" type="curve" smooth="yes"/>
      <point x="165" y="370"/>
      <point x="287" y="489"/>
      <point x="489" y="490" type="curve" smooth="yes"/>
      <point x="541" y="490"/>
      <point x="600" y="482"/>
      <point x="638" y="479" type="curve" smooth="yes"/>
      <point x="706" y="474"/>
      <point x="699" y="384"/>
    </contour>
  </outline>
</glyph>
<glyph name="N" format="2">
  <advance width="688"/>
  <unicode hex="004E"/>
  <outline>
    <contour>
      <point x="195" y="71" type="curve" smooth="yes"/>
      <point x="199" y="74"/>
      <point x="200" y="98"/>
      <point x="200" y="104" type="curve" smooth="yes"/>
      <point x="200" y="169"/>
      <point x="200" y="244"/>
      <point x="200" y="298" type="curve" smooth="yes"/>
      <point x="200" y="332"/>
      <point x="200" y="358"/>
      <point x="200" y="377" type="curve" smooth="yes"/>
      <point x="200" y="401"/>
      <point x="57" y="665"/>
      <point x="220" y="505" type="curve" smooth="yes"/>
      <point x="237" y="488"/>
      <point x="258" y="467"/>
      <point x="282" y="444" type="curve" smooth="yes"/>
      <point x="341" y="382"/>
      <point x="412" y="310"/>
      <point x="471" y="251" type="curve" smooth="yes"/>
      <point x="493" y="227"/>
      <point x="513" y="208"/>
      <point x="531" y="190" type="curve" smooth="yes"/>
      <point x="535" y="185"/>
      <point x="638" y="82"/>
      <point x="638" y="88" type="curve" smooth="yes"/>
      <point x="638" y="107"/>
      <point x="638" y="128"/>
      <point x="638" y="148" type="curve" smooth="yes"/>
      <point x="638" y="227"/>
      <point x="638" y="309"/>
      <point x="638" y="353" type="curve" smooth="yes"/>
      <point x="638" y="377"/>
      <point x="635" y="403"/>
      <point x="618" y="439" type="curve" smooth="yes"/>
      <point x="590" y="500"/>
      <point x="671" y="538"/>
      <point x="700" y="477" type="curve" smooth="yes"/>
      <point x="723" y="427"/>
      <point x="728" y="387"/>
      <point x="728" y="353" type="curve" smooth="yes"/>
      <point x="728" y="287"/>
      <point x="728" y="201"/>
      <point x="728" y="148" type="curve" smooth="yes"/>
      <point x="728" y="119"/>
      <point x="728" y="101"/>
      <point x="728" y="88" type="curve" smooth="yes"/>
      <point x="728" y="-47"/>
      <point x="573" y="21"/>
      <point x="467" y="126" type="curve" smooth="yes"/>
      <point x="449" y="144"/>
      <point x="429" y="165"/>
      <point x="407" y="187" type="curve" smooth="yes"/>
      <point x="348" y="246"/>
      <point x="277" y="320"/>
      <point x="218" y="380" type="curve" smooth="yes"/>
      <point x="196" y="403"/>
      <point x="175" y="424"/>
      <point x="156" y="441" type="curve" smooth="yes"/>
      <point x="142" y="455"/>
      <point x="290" y="654"/>
      <point x="290" y="377" type="curve" smooth="yes"/>
      <point x="290" y="349"/>
      <point x="290" y="321"/>
      <point x="290" y="298" type="curve" smooth="yes"/>
      <point x="290" y="218"/>
      <point x="290" y="147"/>
      <point x="290" y="104" type="curve" smooth="yes"/>
      <point x="290" y="57"/>
      <point x="279" y="20"/>
      <point x="247" y="-3" type="curve" smooth="yes"/>
      <point x="192" y="-42"/>
      <point x="140" y="32"/>
    </contour>
  </outline>
</glyph>
<glyph name="O" format="2">
  <advance width="732"/>
  <unicode hex="004F"/>
  <outline>
    <contour>
      <point x="-2155.037561082712" y="-3.1445184572728664" type="curve" smooth="yes"/>
      <point x="-2184.425638680437" y="-13.534131984370033"/>
      <point x="-2215.463604626596" y="-12.342506205720131"/>
      <point x="-2255.1941017054414" y="5.17964736737683" type="curve" smooth="yes"/>
      <point x="-2336.6289525677425" y="41.09447521812694"/>
      <point x="-2403.0207561841585" y="130.84203743466747"/>
      <point x="-2403.0035368147337" y="229.50175732706464" type="curve" smooth="yes"/>
      <point x="-2402.9776524282843" y="377.808367963857"/>
      <point x="-2272.028756438925" y="489.45436482630055"/>
      <point x="-2079.966024056351" y="489.45436482630055" type="curve" smooth="yes"/>
      <point x="-1889.0815906454498" y="489.45436482630055"/>
      <point x="-1760.9778076244047" y="376.9594767950833"/>
      <point x="-1761.003546592953" y="229.4860493641156" type="curve" smooth="yes"/>
      <point x="-1761.0204018794361" y="132.9123710775872"/>
      <point x="-1802.9454423402274" y="43.20071146122451"/>
      <point x="-1906.0358280254911" y="6.754979683010191" type="curve" smooth="yes"/>
      <point x="-1947.9759934515116" y="-8.072203372811709"/>
      <point x="-1994.636034060931" y="-13.508104743413362"/>
      <point x="-2055.9878833277567" y="-5.322572758484441" type="curve" smooth="yes"/>
      <point x="-2122.8950112750967" y="3.604141633624801"/>
      <point x="-2110.992725418951" y="92.81364556341131"/>
      <point x="-2044.085597471611" y="83.88693117130207" type="curve" smooth="yes"/>
      <point x="-1999.517982423447" y="77.94074303144419"/>
      <point x="-1966.5006527523706" y="80.83750848100593"/>
      <point x="-1936.03420112784" y="91.60836860303081" type="curve" smooth="yes"/>
      <point x="-1871.7133244352938" y="114.3478452680331"/>
      <point x="-1851.01406169077" y="169.24683043429084"/>
      <point x="-1851.0035452221748" y="229.50175732706467" type="curve" smooth="yes"/>
      <point x="-1850.9856553447605" y="332.0032050280315"/>
      <point x="-1947.2917442959852" y="399.45436482630055"/>
      <point x="-2079.966024056351" y="399.45436482630055" type="curve" smooth="yes"/>
      <point x="-2213.4592808522743" y="399.45436482630055"/>
      <point x="-2312.9855472353443" y="332.56660128938154"/>
      <point x="-2313.0035381855123" y="229.48604936411562" type="curve" smooth="yes"/>
      <point x="-2313.0142120622845" y="168.3292400427063"/>
      <point x="-2269.356428603868" y="109.789592611235"/>
      <point x="-2218.8769051292948" y="87.52684666917175" type="curve" smooth="yes"/>
      <point x="-2205.7547884850746" y="81.73966151043062"/>
      <point x="-2194.74215712391" y="78.27741412447288"/>
      <point x="-2185.0359160612466" y="81.70887687009049" type="curve" smooth="yes"/>
      <point x="-2121.395869565724" y="104.20764310399166"/>
      <point x="-2091.397514587189" y="19.354247776628302"/>
    </contour>
  </outline>
</glyph>
<glyph name="Q" format="2">
  <advance width="732"/>
  <unicode hex="0051"/>
  <outline>
    <contour>
      <point x="650" y="-60" type="curve" smooth="yes"/>
      <point x="629" y="-38"/>
      <point x="586" y="14"/>
      <point x="547" y="57" type="curve" smooth="yes"/>
      <point x="522" y="85"/>
      <point x="500" y="111"/>
      <point x="488" y="125" type="curve" smooth="yes"/>
      <point x="444" y="176"/>
      <point x="512" y="235"/>
      <point x="556" y="183" type="curve" smooth="yes"/>
      <point x="568" y="169"/>
      <point x="590" y="145"/>
      <point x="615" y="117" type="curve" smooth="yes"/>
      <point x="654" y="72"/>
      <point x="697" y="22"/>
      <point x="716" y="0" type="curve" smooth="yes"/>
      <point x="762" y="-50"/>
      <point x="695" y="-110"/>
    </contour>
    <contour>
      <point x="517" y="-28" type="curve" smooth="yes"/>
      <point x="320" y="-43"/>
      <point x="165" y="70"/>
      <point x="165" y="232" type="curve" smooth="yes"/>
      <point x="165" y="380"/>
      <point x="296" y="492"/>
      <point x="488" y="492" type="curve" smooth="yes"/>
      <point x="686" y="492"/>
      <point x="812" y="372"/>
      <point x="786" y="238" type="curve" smooth="yes"/>
      <point x="775" y="177"/>
      <point x="729" y="126"/>
      <point x="651" y="99" type="curve" smooth="yes"/>
      <point x="556" y="66"/>
      <point x="457" y="103"/>
      <point x="419" y="149" type="curve"/>
      <point x="408" y="162"/>
      <point x="387" y="186"/>
      <point x="362" y="213" type="curve" smooth="yes"/>
      <point x="316" y="263"/>
      <point x="382" y="324"/>
      <point x="428" y="275" type="curve" smooth="yes"/>
      <point x="455" y="246"/>
      <point x="474" y="222"/>
      <point x="489" y="207" type="curve"/>
      <point x="508" y="183"/>
      <point x="572" y="166"/>
      <point x="621" y="183" type="curve" smooth="yes"/>
      <point x="663" y="198"/>
      <point x="692" y="222"/>
      <point x="698" y="254" type="curve" smooth="yes"/>
      <point x="714" y="339"/>
      <point x="613" y="402"/>
      <point x="488" y="402" type="curve" smooth="yes"/>
      <point x="355" y="402"/>
      <point x="255" y="335"/>
      <point x="255" y="232" type="curve" smooth="yes"/>
      <point x="255" y="119"/>
      <point x="373" y="51"/>
      <point x="511" y="62" type="curve" smooth="yes"/>
      <point x="578" y="67"/>
      <point x="585" y="-23"/>
    </contour>
  </outline>
</glyph>
<glyph name="S" format="2">
  <advance width="521"/>
  <unicode hex="0053"/>
  <outline>
    <contour>
      <point x="191" y="117" type="curve" smooth="yes"/>
      <point x="277" y="75"/>
      <point x="333" y="62"/>
      <point x="380" y="60" type="curve" smooth="yes"/>
      <point x="445" y="57"/>
      <point x="504" y="75"/>
      <point x="504" y="118" type="curve" smooth="yes"/>
      <point x="504" y="157"/>
      <point x="418" y="177"/>
      <point x="372" y="191" type="curve" smooth="yes"/>
      <point x="259" y="225"/>
      <point x="183" y="254"/>
      <point x="183" y="345" type="curve" smooth="yes"/>
      <point x="183" y="431"/>
      <point x="264" y="481"/>
      <point x="389" y="488" type="curve" smooth="yes"/>
      <point x="454" y="491"/>
      <point x="473" y="482"/>
      <point x="484" y="487" type="curve" smooth="yes"/>
      <point x="547" y="512"/>
      <point x="580" y="428"/>
      <point x="518" y="403" type="curve" smooth="yes"/>
      <point x="488" y="391"/>
      <point x="419" y="399"/>
      <point x="393" y="398" type="curve" smooth="yes"/>
      <point x="342" y="395"/>
      <point x="273" y="381"/>
      <point x="273" y="345" type="curve" smooth="yes"/>
      <point x="273" y="310"/>
      <point x="355" y="290"/>
      <point x="398" y="277" type="curve" smooth="yes"/>
      <point x="511" y="243"/>
      <point x="594" y="213"/>
      <point x="594" y="118" type="curve" smooth="yes"/>
      <point x="594" y="28"/>
      <point x="512" y="-35"/>
      <point x="376" y="-30" type="curve" smooth="yes"/>
      <point x="321" y="-28"/>
      <point x="255" y="-13"/>
      <point x="153" y="35" type="curve" smooth="yes"/>
      <point x="92" y="65"/>
      <point x="131" y="146"/>
    </contour>
  </outline>
</glyph>
<glyph name="W" format="2">
  <advance width="888"/>
  <unicode hex="0057"/>
  <outline>
    <contour>
      <point x="216" y="485" type="curve" smooth="yes"/>
      <point x="252" y="437"/>
      <point x="279" y="377"/>
      <point x="293" y="345" type="curve" smooth="yes"/>
      <point x="322" y="275"/>
      <point x="346" y="216"/>
      <point x="379" y="144" type="curve" smooth="yes"/>
      <point x="385" y="128"/>
      <point x="393" y="112"/>
      <point x="399" y="97" type="curve" smooth="yes"/>
      <point x="472" y="-72"/>
      <point x="202" y="6"/>
      <point x="270" y="180" type="curve" smooth="yes"/>
      <point x="277" y="197"/>
      <point x="283" y="215"/>
      <point x="289" y="231" type="curve" smooth="yes"/>
      <point x="312" y="294"/>
      <point x="333" y="356"/>
      <point x="353" y="412" type="curve" smooth="yes"/>
      <point x="360" y="433"/>
      <point x="366" y="449"/>
      <point x="372" y="467" type="curve" smooth="yes"/>
      <point x="422" y="613"/>
      <point x="582" y="524"/>
      <point x="633" y="379" type="curve" smooth="yes"/>
      <point x="639" y="362"/>
      <point x="645" y="345"/>
      <point x="650" y="329" type="curve" smooth="yes"/>
      <point x="670" y="271"/>
      <point x="694" y="208"/>
      <point x="716" y="146" type="curve" smooth="yes"/>
      <point x="724" y="125"/>
      <point x="730" y="109"/>
      <point x="734" y="95" type="curve" smooth="yes"/>
      <point x="795" y="-76"/>
      <point x="536" y="7"/>
      <point x="611" y="184" type="curve" smooth="yes"/>
      <point x="622" y="210"/>
      <point x="637" y="232"/>
      <point x="658" y="247" type="curve" smooth="yes"/>
      <point x="746" y="309"/>
      <point x="810" y="281"/>
      <point x="841" y="356" type="curve" smooth="yes"/>
      <point x="851" y="379"/>
      <point x="869" y="419"/>
      <point x="864" y="451" type="curve" smooth="yes"/>
      <point x="853" y="518"/>
      <point x="942" y="532"/>
      <point x="952" y="465" type="curve" smooth="yes"/>
      <point x="961" y="410"/>
      <point x="941" y="362"/>
      <point x="925" y="322" type="curve" smooth="yes"/>
      <point x="877" y="208"/>
      <point x="768" y="214"/>
      <point x="712" y="175" type="curve" smooth="yes"/>
      <point x="703" y="169"/>
      <point x="697" y="158"/>
      <point x="693" y="148" type="curve" smooth="yes"/>
      <point x="691" y="142"/>
      <point x="652" y="58"/>
      <point x="650" y="65" type="curve" smooth="yes"/>
      <point x="642" y="86"/>
      <point x="636" y="102"/>
      <point x="632" y="116" type="curve" smooth="yes"/>
      <point x="610" y="176"/>
      <point x="586" y="241"/>
      <point x="566" y="299" type="curve" smooth="yes"/>
      <point x="559" y="317"/>
      <point x="553" y="334"/>
      <point x="549" y="349" type="curve" smooth="yes"/>
      <point x="534" y="390"/>
      <point x="472" y="479"/>
      <point x="458" y="439" type="curve" smooth="yes"/>
      <point x="452" y="419"/>
      <point x="444" y="401"/>
      <point x="437" y="382" type="curve" smooth="yes"/>
      <point x="417" y="326"/>
      <point x="396" y="264"/>
      <point x="373" y="201" type="curve" smooth="yes"/>
      <point x="367" y="183"/>
      <point x="361" y="165"/>
      <point x="354" y="148" type="curve" smooth="yes"/>
      <point x="351" y="141"/>
      <point x="319" y="55"/>
      <point x="317" y="61" type="curve" smooth="yes"/>
      <point x="309" y="78"/>
      <point x="303" y="92"/>
      <point x="297" y="106" type="curve" smooth="yes"/>
      <point x="264" y="180"/>
      <point x="240" y="239"/>
      <point x="211" y="309" type="curve" smooth="yes"/>
      <point x="199" y="337"/>
      <point x="174" y="391"/>
      <point x="144" y="431" type="curve" smooth="yes"/>
      <point x="104" y="485"/>
      <point x="176" y="539"/>
    </contour>
  </outline>
</glyph>
<glyph name="Y" format="2">
  <advance width="582"/>
  <unicode hex="0059"/>
  <outline>
    <contour>
      <point x="647" y="450" type="curve" smooth="yes"/>
      <point x="642" y="402"/>
      <point x="621" y="371"/>
      <point x="598" y="335" type="curve" smooth="yes"/>
      <point x="560" y="279"/>
      <point x="526" y="244"/>
      <point x="488" y="194" type="curve" smooth="yes"/>
      <point x="472" y="173"/>
      <point x="456" y="149"/>
      <point x="456" y="121" type="curve" smooth="yes"/>
      <point x="456" y="103"/>
      <point x="456" y="89"/>
      <point x="456" y="67" type="curve" smooth="yes"/>
      <point x="456" y="-65"/>
      <point x="246" y="17"/>
      <point x="246" y="155" type="curve" smooth="yes"/>
      <point x="246" y="183"/>
      <point x="246" y="194"/>
      <point x="246" y="207" type="curve" smooth="yes"/>
      <point x="246" y="219"/>
      <point x="254" y="274"/>
      <point x="250" y="282" type="curve" smooth="yes"/>
      <point x="230" y="317"/>
      <point x="195" y="361"/>
      <point x="144" y="428" type="curve" smooth="yes"/>
      <point x="103" y="481"/>
      <point x="175" y="536"/>
      <point x="216" y="482" type="curve" smooth="yes"/>
      <point x="275" y="405"/>
      <point x="306" y="366"/>
      <point x="328" y="326" type="curve" smooth="yes"/>
      <point x="371" y="250"/>
      <point x="336" y="331"/>
      <point x="336" y="207" type="curve" smooth="yes"/>
      <point x="336" y="188"/>
      <point x="336" y="174"/>
      <point x="336" y="155" type="curve" smooth="yes"/>
      <point x="336" y="150"/>
      <point x="366" y="62"/>
      <point x="366" y="67" type="curve" smooth="yes"/>
      <point x="366" y="100"/>
      <point x="366" y="109"/>
      <point x="366" y="121" type="curve" smooth="yes"/>
      <point x="366" y="171"/>
      <point x="388" y="211"/>
      <point x="416" y="248" type="curve" smooth="yes"/>
      <point x="456" y="302"/>
      <point x="488" y="333"/>
      <point x="522" y="385" type="curve" smooth="yes"/>
      <point x="537" y="406"/>
      <point x="554" y="430"/>
      <point x="557" y="460" type="curve" smooth="yes"/>
      <point x="564" y="527"/>
      <point x="654" y="518"/>
    </contour>
  </outline>
</glyph>
<glyph name="bracketright" format="2">
  <advance width="430"/>
  <unicode hex="005D"/>
  <outline>
    <contour>
      <point x="205" y="-44" type="curve" smooth="yes"/>
      <point x="392" y="-44" type="line"/>
      <point x="347" y="-89" type="line"/>
      <point x="347" y="502" type="line"/>
      <point x="392" y="457" type="line"/>
      <point x="205" y="457" type="line" smooth="yes"/>
      <point x="138" y="457"/>
      <point x="138" y="547"/>
      <point x="205" y="547" type="curve" smooth="yes"/>
      <point x="392" y="547" type="line" smooth="yes"/>
      <point x="417" y="547"/>
      <point x="437" y="527"/>
      <point x="437" y="502" type="curve" smooth="yes"/>
      <point x="437" y="-89" type="line" smooth="yes"/>
      <point x="437" y="-114"/>
      <point x="417" y="-134"/>
      <point x="392" y="-134" type="curve" smooth="yes"/>
      <point x="205" y="-134" type="line" smooth="yes"/>
      <point x="138" y="-134"/>
      <point x="138" y="-44"/>
    </contour>
  </outline>
</glyph>
<glyph name="a" format="2">
  <advance width="584"/>
  <unicode hex="0061"/>
  <outline>
    <contour>
      <point x="514.3840344710106" y="412.738896731856" type="curve" smooth="yes"/>
      <point x="555.3523629469621" y="329.6650876018432"/>
      <point x="519.0131744981319" y="325.496269904156"/>
      <point x="518.997158034063" y="233.72869005123493" type="curve" smooth="yes"/>
      <point x="518.9761471413989" y="113.3451420955286"/>
      <point x="533.3914587272178" y="-12.815099114094316"/>
      <point x="406.7235525366724" y="-32.0764667870073" type="curve" smooth="yes"/>
      <point x="285.48123983933306" y="-50.51280818247319"/>
      <point x="158.96495807396425" y="49.22079973624019"/>
      <point x="158.9850690025728" y="164.4479334579022" type="curve" smooth="yes"/>
      <point x="159.0044249198216" y="275.3491707172045"/>
      <point x="257.229895407566" y="360.76093065034894"/>
      <point x="399.0114758178288" y="360.76093065034894" type="curve" smooth="yes"/>
      <point x="539.8196165895775" y="360.76093065034894"/>
      <point x="649.0034688902582" y="269.8985773865953"/>
      <point x="648.9840742321315" y="158.77537124546092" type="curve" smooth="yes"/>
      <point x="648.9803406602175" y="137.38357981561984"/>
      <point x="648.9732282589252" y="96.6325219868334"/>
      <point x="648.9690177955841" y="72.50834394070208" type="curve" smooth="yes"/>
      <point x="648.9615358865515" y="29.640162697402328"/>
      <point x="635.4965303330968" y="-5.2250005328681395"/>
      <point x="598.7513026809477" y="-22.112465871137836" type="curve" smooth="yes"/>
      <point x="537.4184800462425" y="-50.299960752020695"/>
      <point x="499.8351535383987" y="31.47713609425286"/>
      <point x="561.1679761731039" y="59.664630975135715" type="curve" smooth="yes"/>
      <point x="562.6764961823704" y="60.35792044417219"/>
      <point x="558.9687120078496" y="70.76416325148139"/>
      <point x="558.9690191663625" y="72.52405190365104" type="curve" smooth="yes"/>
      <point x="558.9718445721358" y="88.71243460731456"/>
      <point x="558.9785117763515" y="126.91270107602199"/>
      <point x="558.9840756029099" y="158.79107920840983" type="curve" smooth="yes"/>
      <point x="558.9954268208396" y="223.82876750903657"/>
      <point x="481.42302861331467" y="270.76093065034894"/>
      <point x="399.0114758178288" y="270.76093065034894" type="curve" smooth="yes"/>
      <point x="315.53191095181853" y="270.76093065034894"/>
      <point x="248.99646420069178" y="229.72975570106018"/>
      <point x="248.9850676317945" y="164.4322254949533" type="curve" smooth="yes"/>
      <point x="248.97434210502482" y="102.9794834874511"/>
      <point x="328.53276317269894" y="47.068271108447"/>
      <point x="393.1935103590349" y="56.90070982964733" type="curve" smooth="yes"/>
      <point x="445.18182765388036" y="64.80615426484415"/>
      <point x="428.9885359027459" y="184.33537029420367"/>
      <point x="428.9971594048413" y="233.7443980141839" type="curve" smooth="yes"/>
      <point x="429.00420368277537" y="274.10513775299336"/>
      <point x="451.68429618115937" y="336.3951521565871"/>
      <point x="433.66581900433863" y="372.9322428675092" type="curve" smooth="yes"/>
      <point x="403.81082860607853" y="433.4709044675132"/>
      <point x="484.52904407275054" y="473.27755833186"/>
    </contour>
  </outline>
</glyph>
<glyph name="b" format="2">
  <advance width="584"/>
  <unicode hex="0062"/>
  <outline>
    <contour>
      <point x="176" y="72" type="curve" smooth="yes"/>
      <point x="188" y="83"/>
      <point x="186" y="121"/>
      <point x="186" y="168" type="curve" smooth="yes"/>
      <point x="186" y="278"/>
      <point x="282" y="363"/>
      <point x="425" y="363" type="curve" smooth="yes"/>
      <point x="567" y="363"/>
      <point x="666" y="278"/>
      <point x="666" y="166" type="curve" smooth="yes"/>
      <point x="666" y="53"/>
      <point x="536" y="-14"/>
      <point x="348" y="20" type="curve" smooth="yes"/>
      <point x="151" y="55"/>
      <point x="65" y="158"/>
      <point x="68" y="221" type="curve" smooth="yes"/>
      <point x="73" y="389"/>
      <point x="186" y="337"/>
      <point x="186" y="420" type="curve" smooth="yes"/>
      <point x="186" y="434"/>
      <point x="182" y="455"/>
      <point x="174" y="477" type="curve" smooth="yes"/>
      <point x="152" y="541"/>
      <point x="238" y="570"/>
      <point x="260" y="507" type="curve" smooth="yes"/>
      <point x="272" y="472"/>
      <point x="276" y="442"/>
      <point x="276" y="420" type="curve" smooth="yes"/>
      <point x="276" y="285"/>
      <point x="161" y="322"/>
      <point x="158" y="217" type="curve" smooth="yes"/>
      <point x="157" y="187"/>
      <point x="268" y="125"/>
      <point x="364" y="108" type="curve" smooth="yes"/>
      <point x="463" y="91"/>
      <point x="576" y="107"/>
      <point x="576" y="166" type="curve" smooth="yes"/>
      <point x="576" y="232"/>
      <point x="509" y="273"/>
      <point x="425" y="273" type="curve" smooth="yes"/>
      <point x="341" y="273"/>
      <point x="276" y="233"/>
      <point x="276" y="168" type="curve" smooth="yes"/>
      <point x="276" y="52"/>
      <point x="268" y="35"/>
      <point x="238" y="6" type="curve" smooth="yes"/>
      <point x="189" y="-40"/>
      <point x="127" y="25"/>
    </contour>
  </outline>
</glyph>
<glyph name="d" format="2">
  <advance width="584"/>
  <unicode hex="0064"/>
  <outline>
    <contour>
      <point x="626" y="506" type="curve" smooth="yes"/>
      <point x="640" y="469"/>
      <point x="643" y="437"/>
      <point x="635" y="403" type="curve" smooth="yes"/>
      <point x="607" y="293"/>
      <point x="519" y="332"/>
      <point x="519" y="243" type="curve" smooth="yes"/>
      <point x="519" y="123"/>
      <point x="534" y="-10"/>
      <point x="407" y="-29" type="curve" smooth="yes"/>
      <point x="285" y="-48"/>
      <point x="159" y="52"/>
      <point x="159" y="167" type="curve" smooth="yes"/>
      <point x="159" y="277"/>
      <point x="257" y="363"/>
      <point x="399" y="363" type="curve" smooth="yes"/>
      <point x="540" y="363"/>
      <point x="649" y="273"/>
      <point x="649" y="161" type="curve" smooth="yes"/>
      <point x="649" y="129"/>
      <point x="649" y="91"/>
      <point x="649" y="75" type="curve" smooth="yes"/>
      <point x="649" y="42"/>
      <point x="642" y="13"/>
      <point x="628" y="-10" type="curve" smooth="yes"/>
      <point x="592" y="-67"/>
      <point x="516" y="-19"/>
      <point x="552" y="38" type="curve" smooth="yes"/>
      <point x="557" y="47"/>
      <point x="559" y="63"/>
      <point x="559" y="75" type="curve" smooth="yes"/>
      <point x="559" y="99"/>
      <point x="559" y="140"/>
      <point x="559" y="161" type="curve" smooth="yes"/>
      <point x="559" y="227"/>
      <point x="481" y="273"/>
      <point x="399" y="273" type="curve" smooth="yes"/>
      <point x="316" y="273"/>
      <point x="249" y="232"/>
      <point x="249" y="167" type="curve" smooth="yes"/>
      <point x="249" y="106"/>
      <point x="329" y="50"/>
      <point x="393" y="59" type="curve" smooth="yes"/>
      <point x="445" y="67"/>
      <point x="429" y="194"/>
      <point x="429" y="243" type="curve" smooth="yes"/>
      <point x="429" y="392"/>
      <point x="531" y="359"/>
      <point x="547" y="423" type="curve" smooth="yes"/>
      <point x="551" y="441"/>
      <point x="550" y="455"/>
      <point x="542" y="474" type="curve" smooth="yes"/>
      <point x="517" y="536"/>
      <point x="601" y="569"/>
    </contour>
  </outline>
</glyph>
<glyph name="e" format="2">
  <advance width="548"/>
  <unicode hex="0065"/>
  <outline>
    <contour>
      <point x="223" y="257" type="curve" smooth="yes"/>
      <point x="329" y="226"/>
      <point x="333" y="259"/>
      <point x="417" y="259" type="curve" smooth="yes"/>
      <point x="423" y="259"/>
      <point x="533" y="201"/>
      <point x="532" y="205" type="curve" smooth="yes"/>
      <point x="521" y="248"/>
      <point x="465" y="271"/>
      <point x="402" y="271" type="curve" smooth="yes"/>
      <point x="317" y="271"/>
      <point x="249" y="231"/>
      <point x="249" y="164" type="curve" smooth="yes"/>
      <point x="249" y="92"/>
      <point x="324" y="57"/>
      <point x="411" y="57" type="curve" smooth="yes"/>
      <point x="442" y="57"/>
      <point x="487" y="62"/>
      <point x="502" y="89" type="curve" smooth="yes"/>
      <point x="536" y="147"/>
      <point x="614" y="102"/>
      <point x="580" y="43" type="curve" smooth="yes"/>
      <point x="546" y="-15"/>
      <point x="479" y="-33"/>
      <point x="411" y="-33" type="curve" smooth="yes"/>
      <point x="265" y="-33"/>
      <point x="159" y="44"/>
      <point x="159" y="164" type="curve" smooth="yes"/>
      <point x="159" y="278"/>
      <point x="259" y="361"/>
      <point x="402" y="361" type="curve" smooth="yes"/>
      <point x="516" y="361"/>
      <point x="598" y="307"/>
      <point x="620" y="227" type="curve" smooth="yes"/>
      <point x="645" y="131"/>
      <point x="599" y="169"/>
      <point x="417" y="169" type="curve" smooth="yes"/>
      <point x="348" y="169"/>
      <point x="327" y="132"/>
      <point x="197" y="171" type="curve" smooth="yes"/>
      <point x="132" y="190"/>
      <point x="158" y="276"/>
    </contour>
  </outline>
</glyph>
<glyph name="g" format="2">
  <advance width="556"/>
  <unicode hex="0067"/>
  <outline>
    <contour>
      <point x="252" y="-34" type="curve" smooth="yes"/>
      <point x="350" y="-68"/>
      <point x="520" y="-56"/>
      <point x="520" y="26" type="curve" smooth="yes"/>
      <point x="520" y="92"/>
      <point x="520" y="144"/>
      <point x="520" y="189" type="curve" smooth="yes"/>
      <point x="520" y="242"/>
      <point x="456" y="273"/>
      <point x="384" y="273" type="curve" smooth="yes"/>
      <point x="312" y="273"/>
      <point x="249" y="240"/>
      <point x="249" y="187" type="curve" smooth="yes"/>
      <point x="249" y="141"/>
      <point x="257" y="137"/>
      <point x="304" y="149" type="curve" smooth="yes"/>
      <point x="364" y="163"/>
      <point x="398" y="227"/>
      <point x="412" y="276" type="curve" smooth="yes"/>
      <point x="420" y="305"/>
      <point x="419" y="338"/>
      <point x="402" y="385" type="curve" smooth="yes"/>
      <point x="380" y="449"/>
      <point x="466" y="478"/>
      <point x="488" y="415" type="curve" smooth="yes"/>
      <point x="511" y="346"/>
      <point x="510" y="295"/>
      <point x="498" y="252" type="curve" smooth="yes"/>
      <point x="476" y="173"/>
      <point x="421" y="83"/>
      <point x="326" y="61" type="curve" smooth="yes"/>
      <point x="218" y="35"/>
      <point x="159" y="81"/>
      <point x="159" y="187" type="curve" smooth="yes"/>
      <point x="159" y="285"/>
      <point x="251" y="363"/>
      <point x="384" y="363" type="curve" smooth="yes"/>
      <point x="518" y="363"/>
      <point x="610" y="287"/>
      <point x="610" y="189" type="curve" smooth="yes"/>
      <point x="610" y="122"/>
      <point x="610" y="70"/>
      <point x="610" y="26" type="curve" smooth="yes"/>
      <point x="610" y="-122"/>
      <point x="400" y="-179"/>
      <point x="224" y="-120" type="curve" smooth="yes"/>
      <point x="160" y="-98"/>
      <point x="188" y="-13"/>
    </contour>
  </outline>
</glyph>
<glyph name="j" format="2">
  <advance width="245"/>
  <unicode hex="006A"/>
  <outline>
    <contour>
      <point x="262" y="351" type="curve" smooth="yes"/>
      <point x="285" y="301"/>
      <point x="294" y="246"/>
      <point x="294" y="185" type="curve" smooth="yes"/>
      <point x="294" y="125"/>
      <point x="294" y="44"/>
      <point x="294" y="-24" type="curve" smooth="yes"/>
      <point x="294" y="-135"/>
      <point x="155" y="-130"/>
      <point x="43" y="-100" type="curve" smooth="yes"/>
      <point x="-22" y="-83"/>
      <point x="1" y="4"/>
      <point x="67" y="-14" type="curve" smooth="yes"/>
      <point x="84" y="-18"/>
      <point x="204" y="-41"/>
      <point x="204" y="-24" type="curve" smooth="yes"/>
      <point x="204" y="77"/>
      <point x="204" y="145"/>
      <point x="204" y="185" type="curve" smooth="yes"/>
      <point x="204" y="232"/>
      <point x="197" y="275"/>
      <point x="180" y="313" type="curve" smooth="yes"/>
      <point x="152" y="375"/>
      <point x="234" y="412"/>
    </contour>
    <contour>
      <point x="212" y="466" type="curve" smooth="yes"/>
      <point x="213" y="467"/>
      <point x="208" y="453"/>
      <point x="207" y="454" type="curve" smooth="yes"/>
      <point x="182" y="517"/>
      <point x="266" y="550"/>
      <point x="291" y="488" type="curve" smooth="yes"/>
      <point x="304" y="454"/>
      <point x="297" y="430"/>
      <point x="286" y="414" type="curve" smooth="yes"/>
      <point x="246" y="359"/>
      <point x="173" y="411"/>
    </contour>
  </outline>
</glyph>
<glyph name="p" format="2">
  <advance width="584"/>
  <unicode hex="0070"/>
  <outline>
    <contour>
      <point x="186" y="-37" type="curve" smooth="yes"/>
      <point x="188" y="-36"/>
      <point x="186" y="-7"/>
      <point x="186" y="-5" type="curve" smooth="yes"/>
      <point x="186" y="63"/>
      <point x="186" y="119"/>
      <point x="186" y="165" type="curve" smooth="yes"/>
      <point x="186" y="277"/>
      <point x="282" y="361"/>
      <point x="425" y="361" type="curve" smooth="yes"/>
      <point x="567" y="361"/>
      <point x="666" y="274"/>
      <point x="666" y="164" type="curve" smooth="yes"/>
      <point x="666" y="50"/>
      <point x="535" y="-16"/>
      <point x="348" y="18" type="curve" smooth="yes"/>
      <point x="140" y="55"/>
      <point x="36" y="176"/>
      <point x="81" y="261" type="curve" smooth="yes"/>
      <point x="97" y="291"/>
      <point x="92" y="327"/>
      <point x="70" y="373" type="curve" smooth="yes"/>
      <point x="41" y="434"/>
      <point x="123" y="472"/>
      <point x="152" y="411" type="curve" smooth="yes"/>
      <point x="189" y="332"/>
      <point x="188" y="270"/>
      <point x="161" y="219" type="curve" smooth="yes"/>
      <point x="144" y="187"/>
      <point x="285" y="120"/>
      <point x="364" y="106" type="curve" smooth="yes"/>
      <point x="463" y="89"/>
      <point x="576" y="104"/>
      <point x="576" y="164" type="curve" smooth="yes"/>
      <point x="576" y="229"/>
      <point x="508" y="271"/>
      <point x="425" y="271" type="curve" smooth="yes"/>
      <point x="341" y="271"/>
      <point x="276" y="231"/>
      <point x="276" y="165" type="curve" smooth="yes"/>
      <point x="276" y="97"/>
      <point x="276" y="41"/>
      <point x="276" y="-5" type="curve" smooth="yes"/>
      <point x="276" y="-59"/>
      <point x="267" y="-103"/>
      <point x="216" y="-121" type="curve" smooth="yes"/>
      <point x="153" y="-144"/>
      <point x="122" y="-60"/>
    </contour>
  </outline>
</glyph>
<glyph name="r" format="2">
  <advance width="389"/>
  <unicode hex="0072"/>
  <outline>
    <contour>
      <point x="416" y="313" type="curve" smooth="yes"/>
      <point x="364" y="283"/>
      <point x="275" y="236"/>
      <point x="275" y="176" type="curve" smooth="yes"/>
      <point x="275" y="156"/>
      <point x="281" y="111"/>
      <point x="281" y="82" type="curve" smooth="yes"/>
      <point x="281" y="-64"/>
      <point x="94" y="-1"/>
      <point x="72" y="157" type="curve" smooth="yes"/>
      <point x="67" y="199"/>
      <point x="67" y="243"/>
      <point x="73" y="273" type="curve" smooth="yes"/>
      <point x="78" y="301"/>
      <point x="99" y="326"/>
      <point x="76" y="373" type="curve" smooth="yes"/>
      <point x="46" y="434"/>
      <point x="127" y="473"/>
      <point x="156" y="413" type="curve" smooth="yes"/>
      <point x="196" y="331"/>
      <point x="170" y="304"/>
      <point x="161" y="257" type="curve" smooth="yes"/>
      <point x="157" y="235"/>
      <point x="157" y="199"/>
      <point x="162" y="169" type="curve" smooth="yes"/>
      <point x="163" y="162"/>
      <point x="191" y="76"/>
      <point x="191" y="82" type="curve" smooth="yes"/>
      <point x="191" y="105"/>
      <point x="185" y="151"/>
      <point x="185" y="176" type="curve" smooth="yes"/>
      <point x="185" y="281"/>
      <point x="280" y="338"/>
      <point x="372" y="391" type="curve" smooth="yes"/>
      <point x="430" y="425"/>
      <point x="475" y="347"/>
    </contour>
  </outline>
</glyph>
<glyph name="s" format="2">
  <advance width="462"/>
  <unicode hex="0073"/>
  <outline>
    <contour>
      <point x="453" y="263" type="curve" smooth="yes"/>
      <point x="428" y="264"/>
      <point x="385" y="271"/>
      <point x="349" y="271" type="curve" smooth="yes"/>
      <point x="321" y="271"/>
      <point x="261" y="261"/>
      <point x="261" y="244" type="curve" smooth="yes"/>
      <point x="261" y="232"/>
      <point x="345" y="213"/>
      <point x="360" y="210" type="curve" smooth="yes"/>
      <point x="454" y="195"/>
      <point x="521" y="173"/>
      <point x="521" y="96" type="curve" smooth="yes"/>
      <point x="521" y="32"/>
      <point x="471" y="-33"/>
      <point x="364" y="-33" type="curve" smooth="yes"/>
      <point x="311" y="-33"/>
      <point x="234" y="-8"/>
      <point x="155" y="29" type="curve" smooth="yes"/>
      <point x="94" y="58"/>
      <point x="132" y="139"/>
      <point x="193" y="111" type="curve" smooth="yes"/>
      <point x="253" y="82"/>
      <point x="324" y="57"/>
      <point x="364" y="57" type="curve" smooth="yes"/>
      <point x="405" y="57"/>
      <point x="431" y="71"/>
      <point x="431" y="96" type="curve" smooth="yes"/>
      <point x="431" y="108"/>
      <point x="361" y="119"/>
      <point x="346" y="122" type="curve" smooth="yes"/>
      <point x="255" y="136"/>
      <point x="171" y="172"/>
      <point x="171" y="244" type="curve" smooth="yes"/>
      <point x="171" y="312"/>
      <point x="237" y="360"/>
      <point x="349" y="361" type="curve" smooth="yes"/>
      <point x="391" y="361"/>
      <point x="436" y="354"/>
      <point x="457" y="353" type="curve" smooth="yes"/>
      <point x="524" y="350"/>
      <point x="520" y="260"/>
    </contour>
  </outline>
</glyph>
<glyph name="t" format="2">
  <advance width="336"/>
  <unicode hex="0074"/>
  <outline>
    <contour>
      <point x="236" y="80" type="curve" smooth="yes"/>
      <point x="238" y="80"/>
      <point x="238" y="102"/>
      <point x="238" y="105" type="curve" smooth="yes"/>
      <point x="238" y="199"/>
      <point x="238" y="247"/>
      <point x="238" y="316" type="curve" smooth="yes"/>
      <point x="238" y="347"/>
      <point x="236" y="371"/>
      <point x="227" y="400" type="curve" smooth="yes"/>
      <point x="207" y="465"/>
      <point x="293" y="491"/>
      <point x="313" y="426" type="curve" smooth="yes"/>
      <point x="324" y="389"/>
      <point x="328" y="357"/>
      <point x="328" y="316" type="curve" smooth="yes"/>
      <point x="328" y="212"/>
      <point x="328" y="168"/>
      <point x="328" y="105" type="curve" smooth="yes"/>
      <point x="328" y="37"/>
      <point x="305" y="11"/>
      <point x="270" y="-4" type="curve" smooth="yes"/>
      <point x="208" y="-29"/>
      <point x="173" y="54"/>
    </contour>
    <contour>
      <point x="354" y="296" type="curve" smooth="yes"/>
      <point x="330" y="296"/>
      <point x="301" y="301"/>
      <point x="264" y="312" type="curve" smooth="yes"/>
      <point x="261" y="313"/>
      <point x="205" y="333"/>
      <point x="204" y="332" type="curve" smooth="yes"/>
      <point x="195" y="314"/>
      <point x="176" y="296"/>
      <point x="132" y="296" type="curve" smooth="yes"/>
      <point x="65" y="296"/>
      <point x="65" y="386"/>
      <point x="132" y="386" type="curve" smooth="yes"/>
      <point x="134" y="386"/>
      <point x="126" y="376"/>
      <point x="128" y="378" type="curve" smooth="yes"/>
      <point x="147" y="409"/>
      <point x="185" y="426"/>
      <point x="290" y="398" type="curve" smooth="yes"/>
      <point x="314" y="391"/>
      <point x="338" y="386"/>
      <point x="354" y="386" type="curve" smooth="yes"/>
      <point x="422" y="386"/>
      <point x="422" y="296"/>
    </contour>
  </outline>
</glyph>
<glyph name="u" format="2">
  <advance width="568"/>
  <unicode hex="0075"/>
  <outline>
    <contour>
      <point x="245" y="343" type="curve" smooth="yes"/>
      <point x="272" y="259"/>
      <point x="267" y="202"/>
      <point x="267" y="137" type="curve" smooth="yes"/>
      <point x="267" y="83"/>
      <point x="311" y="60"/>
      <point x="378" y="60" type="curve" smooth="yes"/>
      <point x="458" y="60"/>
      <point x="533" y="99"/>
      <point x="533" y="149" type="curve" smooth="yes"/>
      <point x="533" y="183"/>
      <point x="533" y="233"/>
      <point x="533" y="255" type="curve" smooth="yes"/>
      <point x="533" y="261"/>
      <point x="503" y="345"/>
      <point x="503" y="339" type="curve" smooth="yes"/>
      <point x="503" y="293"/>
      <point x="503" y="227"/>
      <point x="503" y="184" type="curve" smooth="yes"/>
      <point x="503" y="142"/>
      <point x="502" y="111"/>
      <point x="487" y="85" type="curve" smooth="yes"/>
      <point x="453" y="27"/>
      <point x="375" y="73"/>
      <point x="409" y="131" type="curve" smooth="yes"/>
      <point x="413" y="137"/>
      <point x="413" y="173"/>
      <point x="413" y="184" type="curve" smooth="yes"/>
      <point x="413" y="247"/>
      <point x="413" y="308"/>
      <point x="413" y="339" type="curve" smooth="yes"/>
      <point x="413" y="486"/>
      <point x="623" y="402"/>
      <point x="623" y="255" type="curve" smooth="yes"/>
      <point x="623" y="222"/>
      <point x="623" y="172"/>
      <point x="623" y="149" type="curve" smooth="yes"/>
      <point x="623" y="56"/>
      <point x="526" y="-30"/>
      <point x="378" y="-30" type="curve" smooth="yes"/>
      <point x="254" y="-30"/>
      <point x="177" y="36"/>
      <point x="177" y="137" type="curve" smooth="yes"/>
      <point x="177" y="192"/>
      <point x="182" y="245"/>
      <point x="159" y="315" type="curve" smooth="yes"/>
      <point x="138" y="379"/>
      <point x="224" y="407"/>
    </contour>
  </outline>
</glyph>
<glyph name="x" format="2">
  <advance width="499"/>
  <unicode hex="0078"/>
  <outline>
    <contour>
      <point x="219" y="361" type="curve" smooth="yes"/>
      <point x="254" y="332"/>
      <point x="286" y="305"/>
      <point x="302" y="289" type="curve" smooth="yes"/>
      <point x="325" y="265"/>
      <point x="411" y="188"/>
      <point x="496" y="113" type="curve" smooth="yes"/>
      <point x="523" y="88"/>
      <point x="539" y="72"/>
      <point x="549" y="61" type="curve" smooth="yes"/>
      <point x="595" y="11"/>
      <point x="528" y="-49"/>
      <point x="483" y="1" type="curve" smooth="yes"/>
      <point x="475" y="10"/>
      <point x="457" y="26"/>
      <point x="436" y="45" type="curve" smooth="yes"/>
      <point x="349" y="124"/>
      <point x="263" y="201"/>
      <point x="238" y="225" type="curve" smooth="yes"/>
      <point x="224" y="239"/>
      <point x="193" y="266"/>
      <point x="163" y="291" type="curve" smooth="yes"/>
      <point x="110" y="334"/>
      <point x="167" y="404"/>
    </contour>
    <contour>
      <point x="572" y="294" type="curve" smooth="yes"/>
      <point x="560" y="267"/>
      <point x="547" y="238"/>
      <point x="535" y="212" type="curve" smooth="yes"/>
      <point x="491" y="118"/>
      <point x="412" y="47"/>
      <point x="319" y="17" type="curve" smooth="yes"/>
      <point x="285" y="7"/>
      <point x="251" y="-11"/>
      <point x="220" y="-24" type="curve" smooth="yes"/>
      <point x="158" y="-51"/>
      <point x="122" y="31"/>
      <point x="184" y="58" type="curve" smooth="yes"/>
      <point x="221" y="75"/>
      <point x="252" y="91"/>
      <point x="291" y="103" type="curve" smooth="yes"/>
      <point x="362" y="125"/>
      <point x="421" y="180"/>
      <point x="453" y="250" type="curve" smooth="yes"/>
      <point x="465" y="276"/>
      <point x="478" y="303"/>
      <point x="490" y="330" type="curve" smooth="yes"/>
      <point x="517" y="392"/>
      <point x="600" y="355"/>
    </contour>
    <contour>
      <point x="121" y="431" type="curve" smooth="yes"/>
      <point x="144" y="411"/>
      <point x="167" y="389"/>
      <point x="190" y="369" type="curve" smooth="yes"/>
      <point x="208" y="352"/>
      <point x="221" y="340"/>
      <point x="233" y="329" type="curve" smooth="yes"/>
      <point x="293" y="274"/>
      <point x="291" y="228"/>
      <point x="232" y="176" type="curve" smooth="yes"/>
      <point x="217" y="163"/>
      <point x="200" y="146"/>
      <point x="182" y="132" type="curve" smooth="yes"/>
      <point x="163" y="115"/>
      <point x="136" y="90"/>
      <point x="112" y="68" type="curve" smooth="yes"/>
      <point x="61" y="24"/>
      <point x="2" y="91"/>
      <point x="52" y="136" type="curve" smooth="yes"/>
      <point x="76" y="156"/>
      <point x="103" y="183"/>
      <point x="126" y="202" type="curve" smooth="yes"/>
      <point x="140" y="214"/>
      <point x="155" y="229"/>
      <point x="172" y="244" type="curve" smooth="yes"/>
      <point x="184" y="254"/>
      <point x="184" y="252"/>
      <point x="171" y="263" type="curve" smooth="yes"/>
      <point x="154" y="279"/>
      <point x="141" y="291"/>
      <point x="130" y="301" type="curve" smooth="yes"/>
      <point x="107" y="321"/>
      <point x="84" y="343"/>
      <point x="61" y="363" type="curve" smooth="yes"/>
      <point x="11" y="407"/>
      <point x="70" y="475"/>
    </contour>
  </outline>
</glyph>
<glyph name="asciitilde" format="2">
  <advance width="639"/>
  <unicode hex="007E"/>
  <outline>
    <contour>
      <point x="645" y="315" type="curve" smooth="yes"/>
      <point x="687" y="190"/>
      <point x="647" y="101"/>
      <point x="548" y="101" type="curve" smooth="yes"/>
      <point x="493" y="101"/>
      <point x="453" y="131"/>
      <point x="411" y="168" type="curve" smooth="yes"/>
      <point x="389" y="188"/>
      <point x="359" y="217"/>
      <point x="330" y="217" type="curve" smooth="yes"/>
      <point x="276" y="217"/>
      <point x="238" y="189"/>
      <point x="216" y="154" type="curve" smooth="yes"/>
      <point x="179" y="98"/>
      <point x="103" y="147"/>
      <point x="140" y="204" type="curve" smooth="yes"/>
      <point x="178" y="261"/>
      <point x="242" y="307"/>
      <point x="330" y="307" type="curve" smooth="yes"/>
      <point x="387" y="307"/>
      <point x="426" y="275"/>
      <point x="471" y="236" type="curve" smooth="yes"/>
      <point x="492" y="218"/>
      <point x="521" y="191"/>
      <point x="548" y="191" type="curve" smooth="yes"/>
      <point x="583" y="191"/>
      <point x="575" y="241"/>
      <point x="559" y="285" type="curve" smooth="yes"/>
      <point x="538" y="349"/>
      <point x="623" y="378"/>
    </contour>
  </outline>
</glyph>
<glyph name="currency" format="2">
  <advance width="646"/>
  <unicode hex="00A4"/>
  <outline>
    <contour>
      <point x="374" y="81" type="curve" smooth="yes"/>
      <point x="288" y="102"/>
      <point x="236" y="162"/>
      <point x="236" y="235" type="curve" smooth="yes"/>
      <point x="236" y="325"/>
      <point x="316" y="396"/>
      <point x="441" y="396" type="curve" smooth="yes"/>
      <point x="567" y="396"/>
      <point x="649" y="325"/>
      <point x="649" y="235" type="curve" smooth="yes"/>
      <point x="649" y="162"/>
      <point x="595" y="102"/>
      <point x="509" y="81" type="curve" smooth="yes"/>
      <point x="444" y="66"/>
      <point x="423" y="153"/>
      <point x="489" y="169" type="curve" smooth="yes"/>
      <point x="528" y="178"/>
      <point x="559" y="201"/>
      <point x="559" y="235" type="curve" smooth="yes"/>
      <point x="559" y="280"/>
      <point x="504" y="306"/>
      <point x="441" y="306" type="curve" smooth="yes"/>
      <point x="378" y="306"/>
      <point x="326" y="280"/>
      <point x="326" y="235" type="curve" smooth="yes"/>
      <point x="326" y="201"/>
      <point x="355" y="178"/>
      <point x="394" y="169" type="curve" smooth="yes"/>
      <point x="460" y="153"/>
      <point x="439" y="66"/>
    </contour>
    <contour>
      <point x="194" y="354" type="curve" smooth="yes"/>
      <point x="165" y="375"/>
      <point x="139" y="393"/>
      <point x="104" y="418" type="curve" smooth="yes"/>
      <point x="49" y="458"/>
      <point x="101" y="531"/>
      <point x="156" y="492" type="curve" smooth="yes"/>
      <point x="191" y="467"/>
      <point x="217" y="449"/>
      <point x="248" y="426" type="curve" smooth="yes"/>
      <point x="302" y="386"/>
      <point x="249" y="314"/>
    </contour>
    <contour>
      <point x="603" y="418" type="curve" smooth="yes"/>
      <point x="580" y="402"/>
      <point x="555" y="360"/>
      <point x="497" y="346" type="curve" smooth="yes"/>
      <point x="431" y="330"/>
      <point x="410" y="418"/>
      <point x="475" y="434" type="curve" smooth="yes"/>
      <point x="508" y="442"/>
      <point x="510" y="463"/>
      <point x="551" y="492" type="curve" smooth="yes"/>
      <point x="606" y="531"/>
      <point x="658" y="457"/>
    </contour>
    <contour>
      <point x="103" y="175" type="curve" smooth="yes"/>
      <point x="155" y="213"/>
      <point x="172" y="205"/>
      <point x="180" y="223" type="curve" smooth="yes"/>
      <point x="209" y="284"/>
      <point x="290" y="246"/>
      <point x="262" y="185" type="curve" smooth="yes"/>
      <point x="239" y="137"/>
      <point x="176" y="117"/>
      <point x="157" y="103" type="curve" smooth="yes"/>
      <point x="102" y="63"/>
      <point x="49" y="135"/>
    </contour>
    <contour>
      <point x="512" y="240" type="curve" smooth="yes"/>
      <point x="553" y="211"/>
      <point x="578" y="193"/>
      <point x="603" y="176" type="curve" smooth="yes"/>
      <point x="658" y="136"/>
      <point x="605" y="63"/>
      <point x="551" y="102" type="curve" smooth="yes"/>
      <point x="526" y="120"/>
      <point x="500" y="139"/>
      <point x="460" y="168" type="curve" smooth="yes"/>
      <point x="405" y="207"/>
      <point x="458" y="280"/>
    </contour>
  </outline>
</glyph>
<glyph name="brokenbar" format="2">
  <advance width="315"/>
  <unicode hex="00A6"/>
  <outline>
    <contour>
      <point x="278" y="202" type="curve" smooth="yes"/>
      <point x="322" y="112"/>
      <point x="323" y="18"/>
      <point x="323" y="-94" type="curve" smooth="yes"/>
      <point x="323" y="-161"/>
      <point x="233" y="-161"/>
      <point x="233" y="-94" type="curve" smooth="yes"/>
      <point x="233" y="-1"/>
      <point x="234" y="88"/>
      <point x="198" y="162" type="curve" smooth="yes"/>
      <point x="168" y="223"/>
      <point x="249" y="262"/>
    </contour>
    <contour>
      <point x="323" y="507" type="curve" smooth="yes"/>
      <point x="323" y="370"/>
      <point x="319" y="295"/>
      <point x="266" y="253" type="curve" smooth="yes"/>
      <point x="213" y="211"/>
      <point x="157" y="281"/>
      <point x="210" y="323" type="curve" smooth="yes"/>
      <point x="234" y="343"/>
      <point x="233" y="444"/>
      <point x="233" y="507" type="curve" smooth="yes"/>
      <point x="233" y="575"/>
      <point x="323" y="575"/>
    </contour>
  </outline>
</glyph>
<glyph name="section" format="2">
  <advance width="505"/>
  <unicode hex="00A7"/>
  <outline>
    <contour>
      <point x="496" y="407" type="curve" smooth="yes"/>
      <point x="467" y="399"/>
      <point x="435" y="402"/>
      <point x="386" y="402" type="curve" smooth="yes"/>
      <point x="357" y="402"/>
      <point x="298" y="395"/>
      <point x="301" y="378" type="curve" smooth="yes"/>
      <point x="307" y="349"/>
      <point x="388" y="325"/>
      <point x="432" y="310" type="curve" smooth="yes"/>
      <point x="551" y="270"/>
      <point x="628" y="236"/>
      <point x="628" y="161" type="curve" smooth="yes"/>
      <point x="628" y="99"/>
      <point x="565" y="42"/>
      <point x="423" y="39" type="curve" smooth="yes"/>
      <point x="355" y="38"/>
      <point x="354" y="128"/>
      <point x="421" y="129" type="curve" smooth="yes"/>
      <point x="460" y="130"/>
      <point x="538" y="144"/>
      <point x="538" y="161" type="curve" smooth="yes"/>
      <point x="538" y="179"/>
      <point x="432" y="215"/>
      <point x="402" y="224" type="curve" smooth="yes"/>
      <point x="292" y="263"/>
      <point x="226" y="288"/>
      <point x="213" y="362" type="curve" smooth="yes"/>
      <point x="199" y="434"/>
      <point x="259" y="492"/>
      <point x="386" y="492" type="curve" smooth="yes"/>
      <point x="409" y="492"/>
      <point x="458" y="490"/>
      <point x="472" y="493" type="curve" smooth="yes"/>
      <point x="537" y="511"/>
      <point x="561" y="424"/>
    </contour>
    <contour>
      <point x="222" y="35" type="curve" smooth="yes"/>
      <point x="285" y="10"/>
      <point x="334" y="-1"/>
      <point x="370" y="-1" type="curve" smooth="yes"/>
      <point x="421" y="-1"/>
      <point x="431" y="21"/>
      <point x="425" y="46" type="curve" smooth="yes"/>
      <point x="420" y="70"/>
      <point x="338" y="89"/>
      <point x="303" y="97" type="curve" smooth="yes"/>
      <point x="190" y="127"/>
      <point x="116" y="156"/>
      <point x="116" y="233" type="curve" smooth="yes"/>
      <point x="116" y="294"/>
      <point x="179" y="348"/>
      <point x="279" y="378" type="curve" smooth="yes"/>
      <point x="343" y="398"/>
      <point x="370" y="312"/>
      <point x="305" y="292" type="curve" smooth="yes"/>
      <point x="275" y="283"/>
      <point x="206" y="251"/>
      <point x="206" y="233" type="curve" smooth="yes"/>
      <point x="206" y="216"/>
      <point x="300" y="191"/>
      <point x="325" y="185" type="curve" smooth="yes"/>
      <point x="428" y="159"/>
      <point x="497" y="136"/>
      <point x="513" y="66" type="curve" smooth="yes"/>
      <point x="527" y="2"/>
      <point x="498" y="-91"/>
      <point x="370" y="-91" type="curve" smooth="yes"/>
      <point x="326" y="-91"/>
      <point x="267" y="-80"/>
      <point x="188" y="-49" type="curve" smooth="yes"/>
      <point x="126" y="-24"/>
      <point x="159" y="60"/>
    </contour>
  </outline>
</glyph>
<glyph name="copyright" format="2">
  <advance width="803"/>
  <unicode hex="00A9"/>
  <outline>
    <contour>
      <point x="561" y="284" type="curve" smooth="yes"/>
      <point x="527" y="288"/>
      <point x="465" y="270"/>
      <point x="465" y="231" type="curve" smooth="yes"/>
      <point x="465" y="197"/>
      <point x="509" y="187"/>
      <point x="538" y="211" type="curve" smooth="yes"/>
      <point x="590" y="254"/>
      <point x="647" y="184"/>
      <point x="594" y="141" type="curve" smooth="yes"/>
      <point x="504" y="67"/>
      <point x="375" y="125"/>
      <point x="375" y="231" type="curve" smooth="yes"/>
      <point x="375" y="331"/>
      <point x="486" y="384"/>
      <point x="571" y="374" type="curve" smooth="yes"/>
      <point x="638" y="366"/>
      <point x="628" y="276"/>
    </contour>
    <contour>
      <point x="449" y="-2" type="curve" smooth="yes"/>
      <point x="414" y="-13"/>
      <point x="373" y="-10"/>
      <point x="325" y="14" type="curve" smooth="yes"/>
      <point x="232" y="60"/>
      <point x="177" y="140"/>
      <point x="177" y="231" type="curve" smooth="yes"/>
      <point x="177" y="378"/>
      <point x="318" y="491"/>
      <point x="526" y="491" type="curve" smooth="yes"/>
      <point x="733" y="491"/>
      <point x="866" y="378"/>
      <point x="866" y="231" type="curve" smooth="yes"/>
      <point x="866" y="140"/>
      <point x="814" y="61"/>
      <point x="724" y="14" type="curve" smooth="yes"/>
      <point x="684" y="-6"/>
      <point x="628" y="-13"/>
      <point x="550" y="-4" type="curve" smooth="yes"/>
      <point x="483" y="5"/>
      <point x="495" y="94"/>
      <point x="562" y="86" type="curve" smooth="yes"/>
      <point x="612" y="79"/>
      <point x="657" y="81"/>
      <point x="682" y="94" type="curve" smooth="yes"/>
      <point x="740" y="124"/>
      <point x="776" y="172"/>
      <point x="776" y="231" type="curve" smooth="yes"/>
      <point x="776" y="334"/>
      <point x="671" y="401"/>
      <point x="526" y="401" type="curve" smooth="yes"/>
      <point x="381" y="401"/>
      <point x="267" y="333"/>
      <point x="267" y="231" type="curve" smooth="yes"/>
      <point x="267" y="172"/>
      <point x="306" y="124"/>
      <point x="365" y="94" type="curve" smooth="yes"/>
      <point x="386" y="84"/>
      <point x="406" y="79"/>
      <point x="421" y="84" type="curve" smooth="yes"/>
      <point x="486" y="104"/>
      <point x="513" y="19"/>
    </contour>
  </outline>
</glyph>
<glyph name="ordfeminine" format="2">
  <advance width="495"/>
  <unicode hex="00AA"/>
  <outline>
    <contour>
      <point x="526" y="95" type="curve" smooth="yes"/>
      <point x="470" y="54"/>
      <point x="369" y="46"/>
      <point x="196" y="87" type="curve" smooth="yes"/>
      <point x="130" y="103"/>
      <point x="151" y="190"/>
      <point x="216" y="175" type="curve" smooth="yes"/>
      <point x="333" y="147"/>
      <point x="435" y="139"/>
      <point x="472" y="167" type="curve" smooth="yes"/>
      <point x="526" y="207"/>
      <point x="580" y="135"/>
    </contour>
    <contour>
      <point x="551" y="445" type="curve" smooth="yes"/>
      <point x="551" y="411"/>
      <point x="551" y="379"/>
      <point x="551" y="341" type="curve" smooth="yes"/>
      <point x="551" y="258"/>
      <point x="478" y="193"/>
      <point x="367" y="193" type="curve" smooth="yes"/>
      <point x="255" y="193"/>
      <point x="181" y="260"/>
      <point x="181" y="343" type="curve" smooth="yes"/>
      <point x="181" y="429"/>
      <point x="267" y="466"/>
      <point x="339" y="496" type="curve" smooth="yes"/>
      <point x="418" y="530"/>
      <point x="431" y="535"/>
      <point x="431" y="430" type="curve" smooth="yes"/>
      <point x="431" y="365"/>
      <point x="431" y="346"/>
      <point x="431" y="326" type="curve" smooth="yes"/>
      <point x="431" y="259"/>
      <point x="341" y="259"/>
      <point x="341" y="326" type="curve" smooth="yes"/>
      <point x="341" y="356"/>
      <point x="341" y="387"/>
      <point x="341" y="430" type="curve" smooth="yes"/>
      <point x="341" y="435"/>
      <point x="377" y="414"/>
      <point x="373" y="412" type="curve" smooth="yes"/>
      <point x="347" y="402"/>
      <point x="271" y="374"/>
      <point x="271" y="343" type="curve" smooth="yes"/>
      <point x="271" y="305"/>
      <point x="316" y="283"/>
      <point x="367" y="283" type="curve" smooth="yes"/>
      <point x="417" y="283"/>
      <point x="461" y="303"/>
      <point x="461" y="341" type="curve" smooth="yes"/>
      <point x="461" y="397"/>
      <point x="461" y="422"/>
      <point x="461" y="445" type="curve" smooth="yes"/>
      <point x="461" y="513"/>
      <point x="551" y="513"/>
    </contour>
  </outline>
</glyph>
<glyph name="guillemetleft" format="2">
  <advance width="637"/>
  <unicode hex="00AB"/>
  <outline>
    <contour>
      <point x="303" y="360" type="curve" smooth="yes"/>
      <point x="106" y="221" type="line"/>
      <point x="106" y="295" type="line"/>
      <point x="303" y="155" type="line" smooth="yes"/>
      <point x="358" y="116"/>
      <point x="306" y="42"/>
      <point x="251" y="81" type="curve" smooth="yes"/>
      <point x="54" y="221" type="line" smooth="yes"/>
      <point x="29" y="239"/>
      <point x="29" y="277"/>
      <point x="54" y="295" type="curve" smooth="yes"/>
      <point x="251" y="434" type="line" smooth="yes"/>
      <point x="306" y="473"/>
      <point x="358" y="399"/>
    </contour>
    <contour>
      <point x="563" y="360" type="curve" smooth="yes"/>
      <point x="366" y="221" type="line"/>
      <point x="366" y="295" type="line"/>
      <point x="563" y="155" type="line" smooth="yes"/>
      <point x="618" y="116"/>
      <point x="566" y="42"/>
      <point x="511" y="81" type="curve" smooth="yes"/>
      <point x="314" y="221" type="line" smooth="yes"/>
      <point x="289" y="239"/>
      <point x="289" y="277"/>
      <point x="314" y="295" type="curve" smooth="yes"/>
      <point x="511" y="434" type="line" smooth="yes"/>
      <point x="566" y="473"/>
      <point x="618" y="399"/>
    </contour>
  </outline>
</glyph>
<glyph name="logicalnot" format="2">
  <advance width="490"/>
  <unicode hex="00AC"/>
  <outline>
    <contour>
      <point x="179" y="330" type="curve" smooth="yes"/>
      <point x="274" y="310"/>
      <point x="340" y="310"/>
      <point x="406" y="310" type="curve" smooth="yes"/>
      <point x="561" y="310"/>
      <point x="505" y="331"/>
      <point x="505" y="242" type="curve" smooth="yes"/>
      <point x="505" y="210"/>
      <point x="505" y="185"/>
      <point x="505" y="163" type="curve" smooth="yes"/>
      <point x="505" y="96"/>
      <point x="415" y="96"/>
      <point x="415" y="163" type="curve" smooth="yes"/>
      <point x="415" y="196"/>
      <point x="415" y="221"/>
      <point x="415" y="242" type="curve" smooth="yes"/>
      <point x="415" y="246"/>
      <point x="414" y="220"/>
      <point x="406" y="220" type="curve" smooth="yes"/>
      <point x="334" y="220"/>
      <point x="262" y="220"/>
      <point x="161" y="242" type="curve" smooth="yes"/>
      <point x="95" y="256"/>
      <point x="113" y="344"/>
    </contour>
  </outline>
</glyph>
<glyph name="registered" format="2">
  <advance width="644"/>
  <unicode hex="00AE"/>
  <outline>
    <contour>
      <point x="339" y="81" type="curve" smooth="yes"/>
      <point x="231" y="89"/>
      <point x="153" y="167"/>
      <point x="153" y="272" type="curve" smooth="yes"/>
      <point x="153" y="395"/>
      <point x="269" y="491"/>
      <point x="442" y="491" type="curve" smooth="yes"/>
      <point x="615" y="491"/>
      <point x="731" y="395"/>
      <point x="731" y="272" type="curve" smooth="yes"/>
      <point x="731" y="169"/>
      <point x="641" y="90"/>
      <point x="487" y="82" type="curve" smooth="yes"/>
      <point x="420" y="79"/>
      <point x="415" y="169"/>
      <point x="483" y="172" type="curve" smooth="yes"/>
      <point x="573" y="176"/>
      <point x="641" y="212"/>
      <point x="641" y="272" type="curve" smooth="yes"/>
      <point x="641" y="350"/>
      <point x="552" y="401"/>
      <point x="442" y="401" type="curve" smooth="yes"/>
      <point x="332" y="401"/>
      <point x="243" y="350"/>
      <point x="243" y="272" type="curve" smooth="yes"/>
      <point x="243" y="213"/>
      <point x="285" y="175"/>
      <point x="345" y="171" type="curve" smooth="yes"/>
      <point x="413" y="166"/>
      <point x="406" y="76"/>
    </contour>
    <contour>
      <point x="326" y="204" type="curve" smooth="yes"/>
      <point x="326" y="238"/>
      <point x="326" y="265"/>
      <point x="326" y="289" type="curve" smooth="yes"/>
      <point x="326" y="355"/>
      <point x="363" y="389"/>
      <point x="437" y="389" type="curve" smooth="yes"/>
      <point x="509" y="389"/>
      <point x="569" y="340"/>
      <point x="578" y="292" type="curve" smooth="yes"/>
      <point x="590" y="231"/>
      <point x="547" y="199"/>
      <point x="493" y="197" type="curve" smooth="yes"/>
      <point x="331" y="191"/>
      <point x="307" y="335"/>
      <point x="355" y="355" type="curve" smooth="yes"/>
      <point x="377" y="363"/>
      <point x="392" y="381"/>
      <point x="557" y="238" type="curve" smooth="yes"/>
      <point x="608" y="194"/>
      <point x="550" y="126"/>
      <point x="499" y="170" type="curve" smooth="yes"/>
      <point x="490" y="177"/>
      <point x="388" y="271"/>
      <point x="389" y="271" type="curve"/>
      <point x="388" y="271"/>
      <point x="485" y="287"/>
      <point x="489" y="287" type="curve" smooth="yes"/>
      <point x="492" y="287"/>
      <point x="490" y="272"/>
      <point x="490" y="274" type="curve" smooth="yes"/>
      <point x="488" y="285"/>
      <point x="453" y="299"/>
      <point x="437" y="299" type="curve" smooth="yes"/>
      <point x="423" y="299"/>
      <point x="416" y="302"/>
      <point x="416" y="289" type="curve" smooth="yes"/>
      <point x="416" y="254"/>
      <point x="416" y="227"/>
      <point x="416" y="204" type="curve" smooth="yes"/>
      <point x="416" y="137"/>
      <point x="326" y="137"/>
    </contour>
  </outline>
</glyph>
<glyph name="plusminus" format="2">
  <advance width="540"/>
  <unicode hex="00B1"/>
  <outline>
    <contour>
      <point x="419" y="348" type="curve" smooth="yes"/>
      <point x="383" y="319"/>
      <point x="396" y="247"/>
      <point x="431" y="167" type="curve" smooth="yes"/>
      <point x="459" y="106"/>
      <point x="376" y="69"/>
      <point x="349" y="131" type="curve" smooth="yes"/>
      <point x="286" y="271"/>
      <point x="299" y="366"/>
      <point x="361" y="418" type="curve" smooth="yes"/>
      <point x="414" y="461"/>
      <point x="471" y="391"/>
    </contour>
    <contour>
      <point x="599" y="217" type="curve" smooth="yes"/>
      <point x="517" y="179"/>
      <point x="383" y="176"/>
      <point x="191" y="214" type="curve" smooth="yes"/>
      <point x="125" y="227"/>
      <point x="143" y="315"/>
      <point x="209" y="302" type="curve" smooth="yes"/>
      <point x="367" y="271"/>
      <point x="493" y="267"/>
      <point x="561" y="299" type="curve" smooth="yes"/>
      <point x="622" y="327"/>
      <point x="660" y="246"/>
    </contour>
    <contour>
      <point x="599" y="5" type="curve" smooth="yes"/>
      <point x="517" y="-33"/>
      <point x="383" y="-36"/>
      <point x="191" y="2" type="curve" smooth="yes"/>
      <point x="125" y="15"/>
      <point x="143" y="103"/>
      <point x="209" y="90" type="curve" smooth="yes"/>
      <point x="367" y="59"/>
      <point x="493" y="55"/>
      <point x="561" y="87" type="curve" smooth="yes"/>
      <point x="622" y="115"/>
      <point x="660" y="34"/>
    </contour>
  </outline>
</glyph>
<glyph name="twosuperior" format="2">
  <advance width="431"/>
  <unicode hex="00B2"/>
  <outline>
    <contour>
      <point x="453" y="183" type="curve" smooth="yes"/>
      <point x="426" y="175"/>
      <point x="394" y="172"/>
      <point x="356" y="172" type="curve" smooth="yes"/>
      <point x="185" y="172"/>
      <point x="80" y="297"/>
      <point x="207" y="369" type="curve" smooth="yes"/>
      <point x="297" y="420"/>
      <point x="386" y="421"/>
      <point x="413" y="431" type="curve" smooth="yes"/>
      <point x="417" y="433"/>
      <point x="258" y="391"/>
      <point x="251" y="388" type="curve" smooth="yes"/>
      <point x="188" y="361"/>
      <point x="153" y="444"/>
      <point x="215" y="470" type="curve" smooth="yes"/>
      <point x="403" y="550"/>
      <point x="557" y="387"/>
      <point x="443" y="347" type="curve" smooth="yes"/>
      <point x="410" y="334"/>
      <point x="323" y="332"/>
      <point x="251" y="291" type="curve" smooth="yes"/>
      <point x="233" y="280"/>
      <point x="331" y="262"/>
      <point x="356" y="262" type="curve" smooth="yes"/>
      <point x="381" y="262"/>
      <point x="408" y="263"/>
      <point x="425" y="269" type="curve" smooth="yes"/>
      <point x="490" y="289"/>
      <point x="517" y="204"/>
    </contour>
  </outline>
</glyph>
<glyph name="threesuperior" format="2">
  <advance width="419"/>
  <unicode hex="00B3"/>
  <outline>
    <contour>
      <point x="242" y="269" type="curve" smooth="yes"/>
      <point x="277" y="260"/>
      <point x="396" y="254"/>
      <point x="396" y="273" type="curve" smooth="yes"/>
      <point x="396" y="274"/>
      <point x="387" y="277"/>
      <point x="384" y="277" type="curve" smooth="yes"/>
      <point x="368" y="284"/>
      <point x="347" y="287"/>
      <point x="320" y="289" type="curve" smooth="yes"/>
      <point x="226" y="292"/>
      <point x="123" y="394"/>
      <point x="162" y="467" type="curve" smooth="yes"/>
      <point x="174" y="489"/>
      <point x="210" y="519"/>
      <point x="267" y="524" type="curve" smooth="yes"/>
      <point x="394" y="538"/>
      <point x="523" y="395"/>
      <point x="370" y="395" type="curve" smooth="yes"/>
      <point x="304" y="395"/>
      <point x="264" y="395"/>
      <point x="232" y="395" type="curve" smooth="yes"/>
      <point x="165" y="395"/>
      <point x="165" y="485"/>
      <point x="232" y="485" type="curve" smooth="yes"/>
      <point x="280" y="485"/>
      <point x="326" y="485"/>
      <point x="370" y="485" type="curve" smooth="yes"/>
      <point x="375" y="485"/>
      <point x="280" y="435"/>
      <point x="275" y="434" type="curve" smooth="yes"/>
      <point x="270" y="434"/>
      <point x="243" y="427"/>
      <point x="242" y="425" type="curve" smooth="yes"/>
      <point x="237" y="417"/>
      <point x="314" y="379"/>
      <point x="326" y="379" type="curve" smooth="yes"/>
      <point x="365" y="377"/>
      <point x="394" y="370"/>
      <point x="414" y="363" type="curve" smooth="yes"/>
      <point x="466" y="345"/>
      <point x="486" y="307"/>
      <point x="486" y="273" type="curve" smooth="yes"/>
      <point x="486" y="191"/>
      <point x="369" y="142"/>
      <point x="218" y="183" type="curve" smooth="yes"/>
      <point x="153" y="200"/>
      <point x="176" y="287"/>
    </contour>
  </outline>
</glyph>
<glyph name="paragraph" format="2">
  <advance width="778"/>
  <unicode hex="00B6"/>
  <outline>
    <contour>
      <point x="690" y="76" type="curve" smooth="yes"/>
      <point x="705" y="88"/>
      <point x="701" y="320"/>
      <point x="701" y="366" type="curve" smooth="yes"/>
      <point x="701" y="406"/>
      <point x="574" y="488"/>
      <point x="519" y="474" type="curve" smooth="yes"/>
      <point x="477" y="464"/>
      <point x="476" y="415"/>
      <point x="402" y="396" type="curve" smooth="yes"/>
      <point x="360" y="385"/>
      <point x="257" y="358"/>
      <point x="257" y="319" type="curve" smooth="yes"/>
      <point x="257" y="287"/>
      <point x="305" y="250"/>
      <point x="328" y="261" type="curve" smooth="yes"/>
      <point x="353" y="274"/>
      <point x="351" y="315"/>
      <point x="351" y="347" type="curve" smooth="yes"/>
      <point x="351" y="391"/>
      <point x="351" y="394"/>
      <point x="351" y="425" type="curve" smooth="yes"/>
      <point x="351" y="557"/>
      <point x="561" y="473"/>
      <point x="561" y="339" type="curve" smooth="yes"/>
      <point x="561" y="172"/>
      <point x="570" y="56"/>
      <point x="515" y="7" type="curve" smooth="yes"/>
      <point x="464" y="-37"/>
      <point x="405" y="30"/>
      <point x="455" y="75" type="curve" smooth="yes"/>
      <point x="477" y="94"/>
      <point x="471" y="275"/>
      <point x="471" y="339" type="curve" smooth="yes"/>
      <point x="471" y="344"/>
      <point x="441" y="430"/>
      <point x="441" y="425" type="curve" smooth="yes"/>
      <point x="441" y="379"/>
      <point x="441" y="376"/>
      <point x="441" y="347" type="curve" smooth="yes"/>
      <point x="441" y="269"/>
      <point x="431" y="212"/>
      <point x="368" y="181" type="curve" smooth="yes"/>
      <point x="291" y="142"/>
      <point x="167" y="212"/>
      <point x="167" y="319" type="curve" smooth="yes"/>
      <point x="167" y="417"/>
      <point x="274" y="456"/>
      <point x="380" y="484" type="curve" smooth="yes"/>
      <point x="422" y="494"/>
      <point x="423" y="543"/>
      <point x="497" y="562" type="curve" smooth="yes"/>
      <point x="623" y="592"/>
      <point x="791" y="456"/>
      <point x="791" y="366" type="curve" smooth="yes"/>
      <point x="791" y="192"/>
      <point x="803" y="47"/>
      <point x="742" y="4" type="curve" smooth="yes"/>
      <point x="688" y="-36"/>
      <point x="635" y="37"/>
    </contour>
  </outline>
</glyph>
<glyph name="eth" format="2">
  <advance width="551"/>
  <unicode hex="00F0"/>
  <outline>
    <contour>
      <point x="351" y="538" type="curve" smooth="yes"/>
      <point x="399" y="509"/>
      <point x="434" y="486"/>
      <point x="458" y="470" type="curve" smooth="yes"/>
      <point x="568" y="394"/>
      <point x="632" y="304"/>
      <point x="632" y="180" type="curve" smooth="yes"/>
      <point x="632" y="72"/>
      <point x="544" y="-29"/>
      <point x="390" y="-29" type="curve" smooth="yes"/>
      <point x="250" y="-29"/>
      <point x="159" y="51"/>
      <point x="159" y="158" type="curve" smooth="yes"/>
      <point x="159" y="269"/>
      <point x="271" y="331"/>
      <point x="365" y="353" type="curve" smooth="yes"/>
      <point x="496" y="384"/>
      <point x="623" y="256"/>
      <point x="480" y="186" type="curve" smooth="yes"/>
      <point x="419" y="156"/>
      <point x="380" y="237"/>
      <point x="440" y="266" type="curve" smooth="yes"/>
      <point x="447" y="270"/>
      <point x="391" y="267"/>
      <point x="385" y="265" type="curve" smooth="yes"/>
      <point x="334" y="253"/>
      <point x="249" y="218"/>
      <point x="249" y="158" type="curve" smooth="yes"/>
      <point x="249" y="96"/>
      <point x="309" y="61"/>
      <point x="390" y="61" type="curve" smooth="yes"/>
      <point x="484" y="61"/>
      <point x="542" y="114"/>
      <point x="542" y="180" type="curve" smooth="yes"/>
      <point x="542" y="274"/>
      <point x="490" y="338"/>
      <point x="406" y="396" type="curve" smooth="yes"/>
      <point x="384" y="412"/>
      <point x="349" y="433"/>
      <point x="303" y="462" type="curve" smooth="yes"/>
      <point x="246" y="497"/>
      <point x="293" y="574"/>
    </contour>
    <contour>
      <point x="552" y="420" type="curve" smooth="yes"/>
      <point x="441" y="430"/>
      <point x="353" y="417"/>
      <point x="321" y="370" type="curve" smooth="yes"/>
      <point x="283" y="314"/>
      <point x="209" y="364"/>
      <point x="247" y="420" type="curve" smooth="yes"/>
      <point x="294" y="490"/>
      <point x="393" y="524"/>
      <point x="560" y="510" type="curve" smooth="yes"/>
      <point x="627" y="504"/>
      <point x="619" y="414"/>
    </contour>
  </outline>
</glyph>
<glyph name="divide" format="2">
  <advance width="540"/>
  <unicode hex="00F7"/>
  <outline>
    <contour>
      <point x="209" y="253" type="curve" smooth="yes"/>
      <point x="366" y="221"/>
      <point x="493" y="217"/>
      <point x="561" y="250" type="curve" smooth="yes"/>
      <point x="621" y="279"/>
      <point x="660" y="198"/>
      <point x="599" y="168" type="curve" smooth="yes"/>
      <point x="517" y="129"/>
      <point x="383" y="125"/>
      <point x="191" y="165" type="curve" smooth="yes"/>
      <point x="125" y="179"/>
      <point x="143" y="267"/>
    </contour>
    <contour>
      <point x="392" y="271" type="curve" smooth="yes"/>
      <point x="304" y="282"/>
      <point x="305" y="384"/>
      <point x="393" y="392" type="curve" smooth="yes"/>
      <point x="460" y="398"/>
      <point x="468" y="308"/>
      <point x="401" y="302" type="curve" smooth="yes"/>
      <point x="398" y="302"/>
      <point x="400" y="361"/>
      <point x="402" y="361" type="curve" smooth="yes"/>
      <point x="469" y="353"/>
      <point x="459" y="263"/>
    </contour>
    <contour>
      <point x="392" y="26" type="curve" smooth="yes"/>
      <point x="305" y="37"/>
      <point x="305" y="137"/>
      <point x="392" y="148" type="curve" smooth="yes"/>
      <point x="459" y="156"/>
      <point x="469" y="66"/>
      <point x="402" y="58" type="curve" smooth="yes"/>
      <point x="400" y="58"/>
      <point x="400" y="116"/>
      <point x="402" y="116" type="curve" smooth="yes"/>
      <point x="469" y="108"/>
      <point x="459" y="18"/>
    </contour>
  </outline>
</glyph>
<glyph name="circumflex" format="2">
  <advance width="562"/>
  <unicode hex="02C6"/>
  <outline>
    <contour>
      <point x="252" y="476" type="curve" smooth="yes"/>
      <point x="300" y="484"/>
      <point x="311" y="491"/>
      <point x="333" y="504" type="curve" smooth="yes"/>
      <point x="390" y="539"/>
      <point x="414" y="536"/>
      <point x="468" y="505" type="curve" smooth="yes"/>
      <point x="494" y="489"/>
      <point x="509" y="480"/>
      <point x="525" y="471" type="curve" smooth="yes"/>
      <point x="584" y="438"/>
      <point x="540" y="360"/>
      <point x="481" y="393" type="curve" smooth="yes"/>
      <point x="465" y="402"/>
      <point x="450" y="411"/>
      <point x="422" y="427" type="curve" smooth="yes"/>
      <point x="400" y="440"/>
      <point x="404" y="442"/>
      <point x="381" y="428" type="curve" smooth="yes"/>
      <point x="351" y="409"/>
      <point x="330" y="398"/>
      <point x="266" y="388" type="curve" smooth="yes"/>
      <point x="199" y="377"/>
      <point x="185" y="466"/>
    </contour>
  </outline>
</glyph>
<glyph name="quotedblright" format="2">
  <advance width="474"/>
  <unicode hex="201D"/>
  <outline>
    <contour>
      <point x="200" y="335" type="curve" smooth="yes"/>
      <point x="215" y="352"/>
      <point x="241" y="396"/>
      <point x="225" y="406" type="curve" smooth="yes"/>
      <point x="168" y="442"/>
      <point x="216" y="518"/>
      <point x="273" y="482" type="curve" smooth="yes"/>
      <point x="338" y="441"/>
      <point x="332" y="354"/>
      <point x="270" y="277" type="curve" smooth="yes"/>
      <point x="227" y="225"/>
      <point x="157" y="282"/>
    </contour>
    <contour>
      <point x="400" y="335" type="curve" smooth="yes"/>
      <point x="415" y="352"/>
      <point x="441" y="396"/>
      <point x="425" y="406" type="curve" smooth="yes"/>
      <point x="368" y="442"/>
      <point x="416" y="518"/>
      <point x="473" y="482" type="curve" smooth="yes"/>
      <point x="538" y="441"/>
      <point x="532" y="354"/>
      <point x="470" y="277" type="curve" smooth="yes"/>
      <point x="427" y="225"/>
      <point x="357" y="282"/>
    </contour>
  </outline>
</glyph>
<glyph name="quotedblbase" format="2">
  <advance width="474"/>
  <unicode hex="201E"/>
  <outline>
    <contour>
      <point x="200" y="-61" type="curve" smooth="yes"/>
      <point x="215" y="-44"/>
      <point x="241" y="0"/>
      <point x="225" y="10" type="curve" smooth="yes"/>
      <point x="168" y="46"/>
      <point x="216" y="122"/>
      <point x="273" y="86" type="curve" smooth="yes"/>
      <point x="338" y="45"/>
      <point x="332" y="-42"/>
      <point x="270" y="-119" type="curve" smooth="yes"/>
      <point x="227" y="-171"/>
      <point x="157" y="-114"/>
    </contour>
    <contour>
      <point x="400" y="-61" type="curve" smooth="yes"/>
      <point x="415" y="-44"/>
      <point x="441" y="0"/>
      <point x="425" y="10" type="curve" smooth="yes"/>
      <point x="368" y="46"/>
      <point x="416" y="122"/>
      <point x="473" y="86" type="curve" smooth="yes"/>
      <point x="538" y="45"/>
      <point x="532" y="-42"/>
      <point x="470" y="-119" type="curve" smooth="yes"/>
      <point x="427" y="-171"/>
      <point x="357" y="-114"/>
    </contour>
  </outline>
</glyph>
<glyph name="bullet" format="2">
  <advance width="552"/>
  <unicode hex="2022"/>
  <outline>
    <contour>
      <point x="316" y="260" type="curve" smooth="yes"/>
      <point x="314" y="262"/>
      <point x="331" y="263"/>
      <point x="333" y="259" type="curve" smooth="yes"/>
      <point x="347" y="216"/>
      <point x="478" y="174"/>
      <point x="480" y="212" type="curve" smooth="yes"/>
      <point x="482" y="235"/>
      <point x="432" y="255"/>
      <point x="397" y="255" type="curve" smooth="yes"/>
      <point x="357" y="255"/>
      <point x="308" y="232"/>
      <point x="308" y="205" type="curve" smooth="yes"/>
      <point x="308" y="199"/>
      <point x="309" y="186"/>
      <point x="314" y="186" type="curve" smooth="yes"/>
      <point x="381" y="179"/>
      <point x="371" y="89"/>
      <point x="304" y="96" type="curve" smooth="yes"/>
      <point x="256" y="101"/>
      <point x="218" y="141"/>
      <point x="218" y="205" type="curve" smooth="yes"/>
      <point x="218" y="276"/>
      <point x="292" y="345"/>
      <point x="397" y="345" type="curve" smooth="yes"/>
      <point x="502" y="345"/>
      <point x="574" y="276"/>
      <point x="570" y="206" type="curve" smooth="yes"/>
      <point x="561" y="72"/>
      <point x="298" y="79"/>
      <point x="247" y="231" type="curve" smooth="yes"/>
      <point x="214" y="333"/>
      <point x="315" y="379"/>
      <point x="374" y="330" type="curve" smooth="yes"/>
      <point x="426" y="286"/>
      <point x="368" y="217"/>
    </contour>
  </outline>
</glyph>
<glyph name="Euro" format="2">
  <advance width="606"/>
  <unicode hex="20AC"/>
  <outline>
    <contour>
      <point x="537" y="94" type="curve" smooth="yes"/>
      <point x="287" y="32"/>
      <point x="103" y="136"/>
      <point x="103" y="314" type="curve" smooth="yes"/>
      <point x="103" y="491"/>
      <point x="286" y="595"/>
      <point x="537" y="533" type="curve" smooth="yes"/>
      <point x="602" y="516"/>
      <point x="581" y="429"/>
      <point x="515" y="445" type="curve" smooth="yes"/>
      <point x="339" y="489"/>
      <point x="193" y="438"/>
      <point x="193" y="314" type="curve" smooth="yes"/>
      <point x="193" y="189"/>
      <point x="339" y="138"/>
      <point x="515" y="182" type="curve" smooth="yes"/>
      <point x="581" y="198"/>
      <point x="602" y="111"/>
    </contour>
    <contour>
      <point x="70" y="415" type="curve" smooth="yes"/>
      <point x="456" y="415" type="line" smooth="yes"/>
      <point x="524" y="415"/>
      <point x="524" y="325"/>
      <point x="456" y="325" type="curve" smooth="yes"/>
      <point x="70" y="325" type="line" smooth="yes"/>
      <point x="3" y="325"/>
      <point x="3" y="415"/>
    </contour>
    <contour>
      <point x="70" y="303" type="curve" smooth="yes"/>
      <point x="442" y="303" type="line" smooth="yes"/>
      <point x="510" y="303"/>
      <point x="510" y="213"/>
      <point x="442" y="213" type="curve" smooth="yes"/>
      <point x="70" y="213" type="line" smooth="yes"/>
      <point x="3" y="213"/>
      <point x="3" y="303"/>
    </contour>
  </outline>
</glyph>
<glyph name="grave.cap" format="2">
  <advance width="408"/>
  <outline>
    <contour>
      <point x="217" y="595" type="curve" smooth="yes"/>
      <point x="126" y="670" type="line" smooth="yes"/>
      <point x="74" y="713"/>
      <point x="132" y="783"/>
      <point x="184" y="740" type="curve" smooth="yes"/>
      <point x="275" y="665" type="line" smooth="yes"/>
      <point x="327" y="622"/>
      <point x="269" y="552"/>
    </contour>
  </outline>
</glyph>
<glyph name="l" format="2">
  <advance width="254"/>
  <outline>
    <contour>
      <point x="176.9876495335663" y="23.756037636307635" type="curve" smooth="yes"/>
      <point x="176.98806838608388" y="23.062748167271163"/>
      <point x="77.005014510832" y="66.6033598124274"/>
      <point x="77.00555436518803" y="69.69649744351318" type="curve" smooth="yes"/>
      <point x="77.06257136260493" y="396.37983035169816" type="line" smooth="yes"/>
      <point x="77.07106171740388" y="445.02598025349255"/>
      <point x="77.07117147517647" y="462.12706418857954"/>
      <point x="77.06923507846793" y="486.8768597526501" type="curve" smooth="yes"/>
      <point x="77.06336716120298" y="561.8768595231004"/>
      <point x="177.0633668551367" y="561.884683412787"/>
      <point x="177.06923477240167" y="486.8846836423367" type="curve" smooth="yes"/>
      <point x="177.07083941052227" y="466.3752161020746"/>
      <point x="177.06960556050814" y="436.6740891214272"/>
      <point x="177.06256983951786" y="396.3623770595326" type="curve" smooth="yes"/>
      <point x="177.00555284210097" y="69.67904415134763" type="line" smooth="yes"/>
      <point x="176.97542781345902" y="-102.92465661362047"/>
      <point x="77.01104065061891" y="-14.991413974052922"/>
      <point x="76.98766778356924" y="23.695622404301933" type="curve" smooth="yes"/>
      <point x="76.94235635956491" y="98.69560871679971"/>
      <point x="176.94233810956197" y="98.75602394880542"/>
    </contour>
  </outline>
</glyph>
<glyph name="macron.cap" format="2">
  <advance width="490"/>
  <outline>
    <contour>
      <point x="370" y="616" type="curve" smooth="yes"/>
      <point x="120" y="616" type="line" smooth="yes"/>
      <point x="52" y="616"/>
      <point x="53" y="706"/>
      <point x="120" y="706" type="curve" smooth="yes"/>
      <point x="370" y="706" type="line" smooth="yes"/>
      <point x="438" y="706"/>
      <point x="438" y="616"/>
    </contour>
  </outline>
</glyph>
<glyph name="o" format="2">
  <advance width="640"/>
  <outline>
    <contour>
      <point x="384.6788524758024" y="69.74144629140773" type="curve" smooth="yes"/>
      <point x="411.1013225806024" y="63.95905038558256"/>
      <point x="438.1327630547003" y="70.870443615088"/>
      <point x="458.1806578758532" y="88.31518165524263" type="curve" smooth="yes"/>
      <point x="480.0257847412928" y="107.32378674925239"/>
      <point x="490.01613591410734" y="130.3435057520814"/>
      <point x="490.02085427777234" y="157.37773831064504" type="curve" smooth="yes"/>
      <point x="490.0324909993855" y="224.05124222819197"/>
      <point x="412.16363090229646" y="268.58935777509515"/>
      <point x="320.04899512548593" y="268.58935777509515" type="curve" smooth="yes"/>
      <point x="227.6125795633901" y="268.58935777509515"/>
      <point x="150.03280630570833" y="225.8106905039305"/>
      <point x="150.0208594562685" y="157.36028501847952" type="curve" smooth="yes"/>
      <point x="150.01609888295818" y="130.08420900533682"/>
      <point x="164.47171968528622" y="106.08215337635434"/>
      <point x="184.69011294018952" y="86.60630790570953" type="curve" smooth="yes"/>
      <point x="200.10908861192107" y="71.7536149289593"/>
      <point x="230.8993058408886" y="63.12201719735332"/>
      <point x="252.6868968319617" y="68.6530613964388" type="curve" smooth="yes"/>
      <point x="325.3810447550618" y="87.10735243495995"/>
      <point x="349.9867661397567" y="-9.818178129173496"/>
      <point x="277.2926182166566" y="-28.272469167694652" type="curve" smooth="yes"/>
      <point x="221.1052190769629" y="-42.53632184423133"/>
      <point x="155.0778932285768" y="-23.71772025560313"/>
      <point x="115.3143351212222" y="14.585467505077688" type="curve" smooth="yes"/>
      <point x="74.86026183626029" y="53.55381034137031"/>
      <point x="50.011335762433134" y="102.80226517336864"/>
      <point x="50.02086097935557" y="157.37773831064501" type="curve" smooth="yes"/>
      <point x="50.04157986960419" y="276.08823565744973"/>
      <point x="159.74062607331658" y="368.58935777509515"/>
      <point x="320.04899512548593" y="368.58935777509515" type="curve" smooth="yes"/>
      <point x="480.6804367767954" y="368.58935777509515"/>
      <point x="590.0411451148844" y="273.6269451849407"/>
      <point x="590.0208527546853" y="157.3602850184795" type="curve" smooth="yes"/>
      <point x="590.0112540057163" y="102.36350428594665"/>
      <point x="568.2641629194063" y="51.54653136601345"/>
      <point x="523.8237797981044" y="12.87659375554459" type="curve" smooth="yes"/>
      <point x="480.1111715297243" y="-25.160068302817844"/>
      <point x="420.9122013679778" y="-40.55462798919752"/>
      <point x="363.30041242565744" y="-27.946640500290464" type="curve" smooth="yes"/>
      <point x="290.0343473318838" y="-11.912810462681787"/>
      <point x="311.41278738202874" y="85.7752763290164"/>
    </contour>
  </outline>
</glyph>
<glyph name="tilde.cap" format="2">
  <advance width="565"/>
  <outline>
    <contour>
      <point x="477" y="705" type="curve" smooth="yes"/>
      <point x="477" y="641"/>
      <point x="432" y="584"/>
      <point x="354" y="584" type="curve" smooth="yes"/>
      <point x="256" y="584"/>
      <point x="256" y="660"/>
      <point x="207" y="660" type="curve" smooth="yes"/>
      <point x="184" y="660"/>
      <point x="176" y="648"/>
      <point x="176" y="629" type="curve" smooth="yes"/>
      <point x="176" y="562"/>
      <point x="86" y="562"/>
      <point x="86" y="629" type="curve" smooth="yes"/>
      <point x="86" y="694"/>
      <point x="130" y="750"/>
      <point x="207" y="750" type="curve" smooth="yes"/>
      <point x="303" y="750"/>
      <point x="305" y="674"/>
      <point x="354" y="674" type="curve" smooth="yes"/>
      <point x="378" y="674"/>
      <point x="387" y="686"/>
      <point x="387" y="705" type="curve" smooth="yes"/>
      <point x="387" y="773"/>
      <point x="477" y="773"/>
    </contour>
  </outline>
</glyph>
